<svg width="351" height="351" viewBox="0 0 351 351" fill="none" xmlns="http://www.w3.org/2000/svg">
<rect x="0.749878" y="0.0651855" width="350" height="350" rx="20" fill="#FFFDCC"/>
<path d="M149.365 163.651C148.34 163.651 147.546 164.038 146.983 164.811C146.421 165.579 146.14 166.651 146.14 168.028C146.14 170.893 147.215 172.326 149.365 172.326C150.267 172.326 151.36 172.1 152.643 171.649V173.934C151.589 174.374 150.411 174.593 149.11 174.593C147.241 174.593 145.811 174.028 144.821 172.897C143.831 171.76 143.336 170.131 143.336 168.01C143.336 166.674 143.579 165.505 144.065 164.504C144.552 163.496 145.249 162.725 146.157 162.192C147.071 161.653 148.141 161.383 149.365 161.383C150.613 161.383 151.867 161.685 153.127 162.289L152.248 164.504C151.767 164.275 151.284 164.076 150.798 163.906C150.311 163.736 149.834 163.651 149.365 163.651ZM157.31 169.487C157.31 170.46 157.469 171.195 157.785 171.693C158.107 172.191 158.629 172.44 159.349 172.44C160.064 172.44 160.577 172.194 160.888 171.702C161.204 171.204 161.362 170.465 161.362 169.487C161.362 168.514 161.204 167.785 160.888 167.298C160.571 166.812 160.053 166.569 159.332 166.569C158.617 166.569 158.101 166.812 157.785 167.298C157.469 167.779 157.31 168.508 157.31 169.487ZM164.104 169.487C164.104 171.087 163.683 172.338 162.839 173.24C161.995 174.142 160.82 174.593 159.314 174.593C158.371 174.593 157.539 174.388 156.818 173.978C156.098 173.562 155.544 172.967 155.157 172.194C154.77 171.421 154.577 170.518 154.577 169.487C154.577 167.881 154.996 166.633 155.834 165.743C156.672 164.852 157.849 164.407 159.367 164.407C160.31 164.407 161.142 164.612 161.863 165.022C162.584 165.432 163.138 166.021 163.524 166.789C163.911 167.556 164.104 168.456 164.104 169.487ZM175.117 174.418H172.436V168.678C172.436 167.969 172.316 167.439 172.076 167.088C171.842 166.73 171.47 166.551 170.96 166.551C170.274 166.551 169.776 166.803 169.466 167.307C169.155 167.811 169 168.64 169 169.795V174.418H166.319V164.591H168.367L168.727 165.848H168.877C169.141 165.397 169.521 165.046 170.019 164.794C170.517 164.536 171.089 164.407 171.733 164.407C173.204 164.407 174.2 164.887 174.722 165.848H174.959C175.223 165.391 175.609 165.037 176.119 164.785C176.635 164.533 177.215 164.407 177.859 164.407C178.973 164.407 179.813 164.694 180.382 165.268C180.956 165.837 181.243 166.751 181.243 168.01V174.418H178.554V168.678C178.554 167.969 178.433 167.439 178.193 167.088C177.959 166.73 177.587 166.551 177.077 166.551C176.421 166.551 175.929 166.786 175.6 167.255C175.278 167.723 175.117 168.467 175.117 169.487V174.418ZM183.889 162.051C183.889 161.178 184.375 160.742 185.348 160.742C186.32 160.742 186.807 161.178 186.807 162.051C186.807 162.467 186.683 162.793 186.437 163.027C186.197 163.255 185.834 163.37 185.348 163.37C184.375 163.37 183.889 162.93 183.889 162.051ZM186.683 174.418H184.003V164.591H186.683V174.418ZM198.575 174.418H195.894V168.678C195.894 167.969 195.768 167.439 195.516 167.088C195.265 166.73 194.863 166.551 194.312 166.551C193.562 166.551 193.02 166.803 192.686 167.307C192.352 167.805 192.185 168.634 192.185 169.795V174.418H189.505V164.591H191.553L191.913 165.848H192.062C192.361 165.374 192.771 165.016 193.293 164.776C193.82 164.53 194.418 164.407 195.086 164.407C196.228 164.407 197.096 164.717 197.687 165.339C198.279 165.954 198.575 166.844 198.575 168.01V174.418ZM209.887 164.591V165.954L208.349 166.349C208.63 166.789 208.77 167.281 208.77 167.826C208.77 168.88 208.401 169.704 207.663 170.296C206.931 170.881 205.911 171.174 204.604 171.174L204.121 171.148L203.725 171.104C203.45 171.315 203.312 171.549 203.312 171.807C203.312 172.194 203.805 172.387 204.789 172.387H206.459C207.537 172.387 208.357 172.619 208.92 173.082C209.488 173.545 209.772 174.224 209.772 175.121C209.772 176.269 209.292 177.16 208.331 177.793C207.376 178.425 206.002 178.742 204.209 178.742C202.838 178.742 201.789 178.502 201.062 178.021C200.342 177.547 199.981 176.879 199.981 176.017C199.981 175.425 200.166 174.93 200.535 174.532C200.904 174.133 201.446 173.849 202.161 173.679C201.886 173.562 201.645 173.372 201.44 173.108C201.235 172.839 201.133 172.554 201.133 172.255C201.133 171.88 201.241 171.57 201.458 171.324C201.675 171.072 201.988 170.826 202.398 170.586C201.883 170.363 201.473 170.005 201.168 169.513C200.869 169.021 200.72 168.441 200.72 167.773C200.72 166.701 201.068 165.872 201.766 165.286C202.463 164.7 203.459 164.407 204.754 164.407C205.029 164.407 205.354 164.433 205.729 164.486C206.11 164.533 206.353 164.568 206.459 164.591H209.887ZM202.302 175.806C202.302 176.175 202.477 176.465 202.829 176.676C203.186 176.887 203.684 176.993 204.323 176.993C205.284 176.993 206.037 176.861 206.582 176.597C207.127 176.334 207.399 175.973 207.399 175.516C207.399 175.147 207.238 174.892 206.916 174.752C206.594 174.611 206.096 174.541 205.422 174.541H204.033C203.541 174.541 203.128 174.655 202.794 174.883C202.466 175.118 202.302 175.425 202.302 175.806ZM203.277 167.808C203.277 168.341 203.397 168.763 203.638 169.074C203.884 169.384 204.256 169.54 204.754 169.54C205.258 169.54 205.627 169.384 205.861 169.074C206.096 168.763 206.213 168.341 206.213 167.808C206.213 166.625 205.726 166.033 204.754 166.033C203.769 166.033 203.277 166.625 203.277 167.808ZM158.022 200.849C158.022 202.009 157.603 202.923 156.766 203.591C155.933 204.259 154.773 204.593 153.285 204.593C151.914 204.593 150.701 204.336 149.646 203.82V201.289C150.514 201.675 151.246 201.948 151.844 202.106C152.447 202.264 152.998 202.343 153.496 202.343C154.094 202.343 154.551 202.229 154.867 202.001C155.189 201.772 155.35 201.432 155.35 200.981C155.35 200.729 155.28 200.506 155.14 200.313C154.999 200.114 154.791 199.923 154.516 199.742C154.246 199.56 153.692 199.27 152.854 198.872C152.069 198.503 151.48 198.148 151.088 197.808C150.695 197.468 150.382 197.073 150.147 196.622C149.913 196.171 149.796 195.643 149.796 195.04C149.796 193.903 150.18 193.009 150.947 192.359C151.721 191.709 152.787 191.383 154.146 191.383C154.814 191.383 155.45 191.463 156.054 191.621C156.663 191.779 157.299 192.002 157.961 192.289L157.082 194.407C156.396 194.126 155.828 193.929 155.377 193.818C154.932 193.707 154.492 193.651 154.058 193.651C153.543 193.651 153.147 193.771 152.872 194.011C152.597 194.252 152.459 194.565 152.459 194.952C152.459 195.192 152.515 195.403 152.626 195.585C152.737 195.76 152.913 195.933 153.153 196.103C153.399 196.267 153.976 196.566 154.885 197C156.086 197.574 156.909 198.151 157.354 198.731C157.8 199.305 158.022 200.011 158.022 200.849ZM162.276 199.487C162.276 200.46 162.434 201.195 162.751 201.693C163.073 202.191 163.595 202.44 164.315 202.44C165.03 202.44 165.543 202.194 165.853 201.702C166.17 201.204 166.328 200.465 166.328 199.487C166.328 198.514 166.17 197.785 165.853 197.298C165.537 196.812 165.018 196.569 164.298 196.569C163.583 196.569 163.067 196.812 162.751 197.298C162.434 197.779 162.276 198.508 162.276 199.487ZM169.07 199.487C169.07 201.087 168.648 202.338 167.805 203.24C166.961 204.142 165.786 204.593 164.28 204.593C163.337 204.593 162.505 204.388 161.784 203.978C161.063 203.562 160.51 202.967 160.123 202.194C159.736 201.421 159.543 200.518 159.543 199.487C159.543 197.881 159.962 196.633 160.8 195.743C161.638 194.852 162.815 194.407 164.333 194.407C165.276 194.407 166.108 194.612 166.829 195.022C167.55 195.432 168.103 196.021 168.49 196.789C168.877 197.556 169.07 198.456 169.07 199.487ZM173.421 199.487C173.421 200.46 173.579 201.195 173.895 201.693C174.218 202.191 174.739 202.44 175.46 202.44C176.175 202.44 176.687 202.194 176.998 201.702C177.314 201.204 177.473 200.465 177.473 199.487C177.473 198.514 177.314 197.785 176.998 197.298C176.682 196.812 176.163 196.569 175.442 196.569C174.727 196.569 174.212 196.812 173.895 197.298C173.579 197.779 173.421 198.508 173.421 199.487ZM180.215 199.487C180.215 201.087 179.793 202.338 178.949 203.24C178.105 204.142 176.931 204.593 175.425 204.593C174.481 204.593 173.649 204.388 172.929 203.978C172.208 203.562 171.654 202.967 171.267 202.194C170.881 201.421 170.687 200.518 170.687 199.487C170.687 197.881 171.106 196.633 171.944 195.743C172.782 194.852 173.96 194.407 175.477 194.407C176.421 194.407 177.253 194.612 177.974 195.022C178.694 195.432 179.248 196.021 179.635 196.789C180.021 197.556 180.215 198.456 180.215 199.487ZM191.5 204.418H188.819V198.678C188.819 197.969 188.693 197.439 188.441 197.088C188.189 196.73 187.788 196.551 187.237 196.551C186.487 196.551 185.945 196.803 185.611 197.307C185.277 197.805 185.11 198.634 185.11 199.795V204.418H182.43V194.591H184.477L184.838 195.848H184.987C185.286 195.374 185.696 195.016 186.218 194.776C186.745 194.53 187.343 194.407 188.011 194.407C189.153 194.407 190.02 194.717 190.612 195.339C191.204 195.954 191.5 196.844 191.5 198.01V204.418ZM193.882 203.161C193.882 202.669 194.014 202.297 194.277 202.045C194.541 201.793 194.925 201.667 195.429 201.667C195.915 201.667 196.29 201.796 196.554 202.053C196.823 202.311 196.958 202.68 196.958 203.161C196.958 203.624 196.823 203.99 196.554 204.259C196.284 204.523 195.909 204.655 195.429 204.655C194.936 204.655 194.556 204.526 194.286 204.268C194.016 204.005 193.882 203.635 193.882 203.161ZM199.015 203.161C199.015 202.669 199.146 202.297 199.41 202.045C199.674 201.793 200.057 201.667 200.561 201.667C201.048 201.667 201.423 201.796 201.686 202.053C201.956 202.311 202.091 202.68 202.091 203.161C202.091 203.624 201.956 203.99 201.686 204.259C201.417 204.523 201.042 204.655 200.561 204.655C200.069 204.655 199.688 204.526 199.419 204.268C199.149 204.005 199.015 203.635 199.015 203.161ZM204.147 203.161C204.147 202.669 204.279 202.297 204.543 202.045C204.807 201.793 205.19 201.667 205.694 201.667C206.181 201.667 206.556 201.796 206.819 202.053C207.089 202.311 207.224 202.68 207.224 203.161C207.224 203.624 207.089 203.99 206.819 204.259C206.55 204.523 206.175 204.655 205.694 204.655C205.202 204.655 204.821 204.526 204.552 204.268C204.282 204.005 204.147 203.635 204.147 203.161Z" fill="#3E3B36"/>
</svg>
