<svg width="351" height="351" viewBox="0 0 351 351" fill="none" xmlns="http://www.w3.org/2000/svg">
<rect x="0.0908203" y="0.643066" width="350" height="350" fill="#FFFDCC"/>
<path d="M148.706 164.229C147.681 164.229 146.887 164.616 146.324 165.389C145.762 166.157 145.48 167.229 145.48 168.606C145.48 171.471 146.556 172.904 148.706 172.904C149.608 172.904 150.701 172.678 151.984 172.227V174.512C150.93 174.952 149.752 175.171 148.451 175.171C146.582 175.171 145.152 174.606 144.162 173.475C143.172 172.338 142.677 170.709 142.677 168.588C142.677 167.252 142.92 166.083 143.406 165.081C143.893 164.074 144.59 163.303 145.498 162.77C146.412 162.231 147.481 161.961 148.706 161.961C149.954 161.961 151.208 162.263 152.468 162.867L151.589 165.081C151.108 164.853 150.625 164.654 150.139 164.484C149.652 164.314 149.175 164.229 148.706 164.229ZM156.651 170.065C156.651 171.037 156.81 171.773 157.126 172.271C157.448 172.769 157.97 173.018 158.69 173.018C159.405 173.018 159.918 172.772 160.229 172.28C160.545 171.782 160.703 171.043 160.703 170.065C160.703 169.092 160.545 168.363 160.229 167.876C159.912 167.39 159.394 167.147 158.673 167.147C157.958 167.147 157.442 167.39 157.126 167.876C156.81 168.357 156.651 169.086 156.651 170.065ZM163.445 170.065C163.445 171.664 163.023 172.915 162.18 173.818C161.336 174.72 160.161 175.171 158.655 175.171C157.712 175.171 156.88 174.966 156.159 174.556C155.438 174.14 154.885 173.545 154.498 172.772C154.111 171.998 153.918 171.096 153.918 170.065C153.918 168.459 154.337 167.211 155.175 166.321C156.013 165.43 157.19 164.985 158.708 164.985C159.651 164.985 160.483 165.19 161.204 165.6C161.925 166.01 162.479 166.599 162.865 167.367C163.252 168.134 163.445 169.034 163.445 170.065ZM174.458 174.995H171.777V169.256C171.777 168.547 171.657 168.017 171.417 167.665C171.183 167.308 170.811 167.129 170.301 167.129C169.615 167.129 169.117 167.381 168.807 167.885C168.496 168.389 168.341 169.218 168.341 170.372V174.995H165.66V165.169H167.708L168.068 166.426H168.218C168.481 165.975 168.862 165.623 169.36 165.371C169.858 165.114 170.43 164.985 171.074 164.985C172.545 164.985 173.541 165.465 174.063 166.426H174.3C174.563 165.969 174.95 165.615 175.46 165.363C175.976 165.111 176.556 164.985 177.2 164.985C178.313 164.985 179.154 165.272 179.723 165.846C180.297 166.414 180.584 167.328 180.584 168.588V174.995H177.895V169.256C177.895 168.547 177.774 168.017 177.534 167.665C177.3 167.308 176.928 167.129 176.418 167.129C175.762 167.129 175.27 167.364 174.941 167.832C174.619 168.301 174.458 169.045 174.458 170.065V174.995ZM183.229 162.629C183.229 161.756 183.716 161.32 184.688 161.32C185.661 161.32 186.147 161.756 186.147 162.629C186.147 163.045 186.024 163.37 185.778 163.605C185.538 163.833 185.175 163.948 184.688 163.948C183.716 163.948 183.229 163.508 183.229 162.629ZM186.024 174.995H183.344V165.169H186.024V174.995ZM197.916 174.995H195.235V169.256C195.235 168.547 195.109 168.017 194.857 167.665C194.605 167.308 194.204 167.129 193.653 167.129C192.903 167.129 192.361 167.381 192.027 167.885C191.693 168.383 191.526 169.212 191.526 170.372V174.995H188.846V165.169H190.894L191.254 166.426H191.403C191.702 165.952 192.112 165.594 192.634 165.354C193.161 165.108 193.759 164.985 194.427 164.985C195.569 164.985 196.437 165.295 197.028 165.916C197.62 166.532 197.916 167.422 197.916 168.588V174.995ZM209.228 165.169V166.532L207.689 166.927C207.971 167.367 208.111 167.859 208.111 168.404C208.111 169.458 207.742 170.282 207.004 170.873C206.271 171.459 205.252 171.752 203.945 171.752L203.462 171.726L203.066 171.682C202.791 171.893 202.653 172.127 202.653 172.385C202.653 172.772 203.146 172.965 204.13 172.965H205.8C206.878 172.965 207.698 173.197 208.261 173.66C208.829 174.122 209.113 174.802 209.113 175.699C209.113 176.847 208.633 177.738 207.672 178.37C206.717 179.003 205.343 179.32 203.55 179.32C202.179 179.32 201.13 179.079 200.403 178.599C199.683 178.124 199.322 177.456 199.322 176.595C199.322 176.003 199.507 175.508 199.876 175.11C200.245 174.711 200.787 174.427 201.502 174.257C201.227 174.14 200.986 173.95 200.781 173.686C200.576 173.416 200.474 173.132 200.474 172.833C200.474 172.458 200.582 172.148 200.799 171.902C201.016 171.65 201.329 171.404 201.739 171.163C201.224 170.941 200.813 170.583 200.509 170.091C200.21 169.599 200.061 169.019 200.061 168.351C200.061 167.279 200.409 166.45 201.106 165.864C201.804 165.278 202.8 164.985 204.095 164.985C204.37 164.985 204.695 165.011 205.07 165.064C205.451 165.111 205.694 165.146 205.8 165.169H209.228ZM201.643 176.384C201.643 176.753 201.818 177.043 202.17 177.254C202.527 177.465 203.025 177.571 203.664 177.571C204.625 177.571 205.378 177.439 205.923 177.175C206.468 176.911 206.74 176.551 206.74 176.094C206.74 175.725 206.579 175.47 206.257 175.329C205.935 175.189 205.437 175.119 204.763 175.119H203.374C202.882 175.119 202.469 175.233 202.135 175.461C201.807 175.696 201.643 176.003 201.643 176.384ZM202.618 168.386C202.618 168.919 202.738 169.341 202.979 169.652C203.225 169.962 203.597 170.118 204.095 170.118C204.599 170.118 204.968 169.962 205.202 169.652C205.437 169.341 205.554 168.919 205.554 168.386C205.554 167.203 205.067 166.611 204.095 166.611C203.11 166.611 202.618 167.203 202.618 168.386ZM157.363 201.427C157.363 202.587 156.944 203.501 156.106 204.169C155.274 204.837 154.114 205.171 152.626 205.171C151.255 205.171 150.042 204.913 148.987 204.398V201.867C149.854 202.253 150.587 202.526 151.185 202.684C151.788 202.842 152.339 202.921 152.837 202.921C153.435 202.921 153.892 202.807 154.208 202.578C154.53 202.35 154.691 202.01 154.691 201.559C154.691 201.307 154.621 201.084 154.48 200.891C154.34 200.692 154.132 200.501 153.856 200.32C153.587 200.138 153.033 199.848 152.195 199.45C151.41 199.08 150.821 198.726 150.429 198.386C150.036 198.046 149.723 197.651 149.488 197.2C149.254 196.748 149.137 196.221 149.137 195.618C149.137 194.481 149.521 193.587 150.288 192.937C151.062 192.286 152.128 191.961 153.487 191.961C154.155 191.961 154.791 192.04 155.395 192.199C156.004 192.357 156.64 192.579 157.302 192.867L156.423 194.985C155.737 194.703 155.169 194.507 154.718 194.396C154.272 194.285 153.833 194.229 153.399 194.229C152.884 194.229 152.488 194.349 152.213 194.589C151.938 194.829 151.8 195.143 151.8 195.53C151.8 195.77 151.855 195.981 151.967 196.162C152.078 196.338 152.254 196.511 152.494 196.681C152.74 196.845 153.317 197.144 154.226 197.578C155.427 198.152 156.25 198.729 156.695 199.309C157.141 199.883 157.363 200.589 157.363 201.427ZM161.617 200.065C161.617 201.037 161.775 201.773 162.092 202.271C162.414 202.769 162.936 203.018 163.656 203.018C164.371 203.018 164.884 202.772 165.194 202.28C165.511 201.782 165.669 201.043 165.669 200.065C165.669 199.092 165.511 198.363 165.194 197.876C164.878 197.39 164.359 197.147 163.639 197.147C162.924 197.147 162.408 197.39 162.092 197.876C161.775 198.357 161.617 199.086 161.617 200.065ZM168.411 200.065C168.411 201.664 167.989 202.915 167.146 203.818C166.302 204.72 165.127 205.171 163.621 205.171C162.678 205.171 161.846 204.966 161.125 204.556C160.404 204.14 159.851 203.545 159.464 202.772C159.077 201.998 158.884 201.096 158.884 200.065C158.884 198.459 159.303 197.211 160.141 196.321C160.979 195.43 162.156 194.985 163.674 194.985C164.617 194.985 165.449 195.19 166.17 195.6C166.891 196.01 167.444 196.599 167.831 197.367C168.218 198.134 168.411 199.034 168.411 200.065ZM172.762 200.065C172.762 201.037 172.92 201.773 173.236 202.271C173.559 202.769 174.08 203.018 174.801 203.018C175.516 203.018 176.028 202.772 176.339 202.28C176.655 201.782 176.813 201.043 176.813 200.065C176.813 199.092 176.655 198.363 176.339 197.876C176.022 197.39 175.504 197.147 174.783 197.147C174.068 197.147 173.553 197.39 173.236 197.876C172.92 198.357 172.762 199.086 172.762 200.065ZM179.556 200.065C179.556 201.664 179.134 202.915 178.29 203.818C177.446 204.72 176.271 205.171 174.766 205.171C173.822 205.171 172.99 204.966 172.27 204.556C171.549 204.14 170.995 203.545 170.608 202.772C170.222 201.998 170.028 201.096 170.028 200.065C170.028 198.459 170.447 197.211 171.285 196.321C172.123 195.43 173.301 194.985 174.818 194.985C175.762 194.985 176.594 195.19 177.314 195.6C178.035 196.01 178.589 196.599 178.976 197.367C179.362 198.134 179.556 199.034 179.556 200.065ZM190.841 204.995H188.16V199.256C188.16 198.547 188.034 198.017 187.782 197.665C187.53 197.308 187.129 197.129 186.578 197.129C185.828 197.129 185.286 197.381 184.952 197.885C184.618 198.383 184.451 199.212 184.451 200.372V204.995H181.771V195.169H183.818L184.179 196.426H184.328C184.627 195.952 185.037 195.594 185.559 195.354C186.086 195.108 186.684 194.985 187.352 194.985C188.494 194.985 189.361 195.295 189.953 195.916C190.545 196.532 190.841 197.422 190.841 198.588V204.995ZM193.223 203.739C193.223 203.246 193.354 202.874 193.618 202.622C193.882 202.37 194.266 202.245 194.77 202.245C195.256 202.245 195.631 202.373 195.895 202.631C196.164 202.889 196.299 203.258 196.299 203.739C196.299 204.202 196.164 204.568 195.895 204.837C195.625 205.101 195.25 205.233 194.77 205.233C194.277 205.233 193.896 205.104 193.627 204.846C193.357 204.582 193.223 204.213 193.223 203.739ZM198.355 203.739C198.355 203.246 198.487 202.874 198.751 202.622C199.015 202.37 199.398 202.245 199.902 202.245C200.389 202.245 200.764 202.373 201.027 202.631C201.297 202.889 201.432 203.258 201.432 203.739C201.432 204.202 201.297 204.568 201.027 204.837C200.758 205.101 200.383 205.233 199.902 205.233C199.41 205.233 199.029 205.104 198.76 204.846C198.49 204.582 198.355 204.213 198.355 203.739ZM203.488 203.739C203.488 203.246 203.62 202.874 203.884 202.622C204.147 202.37 204.531 202.245 205.035 202.245C205.521 202.245 205.896 202.373 206.16 202.631C206.43 202.889 206.564 203.258 206.564 203.739C206.564 204.202 206.43 204.568 206.16 204.837C205.891 205.101 205.516 205.233 205.035 205.233C204.543 205.233 204.162 205.104 203.893 204.846C203.623 204.582 203.488 204.213 203.488 203.739Z" fill="#CB9D25"/>
</svg>
