<svg width="351" height="398" viewBox="0 0 351 398" fill="none" xmlns="http://www.w3.org/2000/svg">
<rect x="0.940369" y="47.1898" width="350" height="350" rx="20" fill="#FFB3E0" fill-opacity="0.26"/>
<path d="M143.593 213.383C142.339 213.383 141.369 213.856 140.682 214.801C139.994 215.739 139.65 217.05 139.65 218.733C139.65 222.235 140.964 223.986 143.593 223.986C144.696 223.986 146.031 223.71 147.6 223.158V225.951C146.31 226.488 144.871 226.757 143.281 226.757C140.997 226.757 139.249 226.066 138.039 224.684C136.829 223.294 136.224 221.304 136.224 218.711C136.224 217.078 136.521 215.65 137.115 214.425C137.71 213.193 138.562 212.252 139.672 211.6C140.789 210.941 142.096 210.612 143.593 210.612C145.118 210.612 146.651 210.98 148.19 211.718L147.116 214.425C146.529 214.146 145.938 213.902 145.344 213.695C144.749 213.487 144.166 213.383 143.593 213.383ZM153.304 220.516C153.304 221.705 153.497 222.603 153.884 223.212C154.278 223.821 154.915 224.125 155.796 224.125C156.67 224.125 157.296 223.824 157.676 223.223C158.062 222.614 158.256 221.712 158.256 220.516C158.256 219.327 158.062 218.435 157.676 217.841C157.289 217.247 156.655 216.949 155.774 216.949C154.901 216.949 154.27 217.247 153.884 217.841C153.497 218.428 153.304 219.32 153.304 220.516ZM161.607 220.516C161.607 222.471 161.092 224 160.06 225.103C159.029 226.206 157.593 226.757 155.753 226.757C154.6 226.757 153.583 226.506 152.702 226.005C151.821 225.497 151.144 224.77 150.672 223.824C150.199 222.879 149.963 221.776 149.963 220.516C149.963 218.554 150.475 217.028 151.499 215.94C152.523 214.851 153.963 214.307 155.817 214.307C156.97 214.307 157.987 214.558 158.868 215.059C159.749 215.56 160.426 216.28 160.898 217.218C161.371 218.156 161.607 219.255 161.607 220.516ZM175.067 226.542H171.791V219.528C171.791 218.661 171.644 218.013 171.351 217.583C171.064 217.146 170.609 216.928 169.986 216.928C169.148 216.928 168.54 217.236 168.16 217.852C167.781 218.468 167.591 219.481 167.591 220.892V226.542H164.314V214.532H166.817L167.258 216.069H167.44C167.763 215.517 168.228 215.087 168.837 214.78C169.446 214.464 170.144 214.307 170.932 214.307C172.729 214.307 173.947 214.894 174.584 216.069H174.874C175.196 215.51 175.669 215.077 176.292 214.769C176.922 214.461 177.631 214.307 178.419 214.307C179.78 214.307 180.807 214.658 181.502 215.36C182.204 216.054 182.555 217.171 182.555 218.711V226.542H179.268V219.528C179.268 218.661 179.121 218.013 178.827 217.583C178.541 217.146 178.086 216.928 177.463 216.928C176.661 216.928 176.059 217.214 175.658 217.787C175.264 218.36 175.067 219.27 175.067 220.516V226.542ZM185.788 211.428C185.788 210.361 186.382 209.827 187.571 209.827C188.76 209.827 189.354 210.361 189.354 211.428C189.354 211.936 189.204 212.334 188.903 212.62C188.61 212.9 188.166 213.039 187.571 213.039C186.382 213.039 185.788 212.502 185.788 211.428ZM189.204 226.542H185.928V214.532H189.204V226.542ZM203.738 226.542H200.462V219.528C200.462 218.661 200.308 218.013 200 217.583C199.692 217.146 199.201 216.928 198.528 216.928C197.612 216.928 196.949 217.236 196.541 217.852C196.133 218.461 195.929 219.474 195.929 220.892V226.542H192.652V214.532H195.155L195.596 216.069H195.778C196.143 215.488 196.645 215.052 197.282 214.758C197.927 214.457 198.657 214.307 199.474 214.307C200.87 214.307 201.93 214.686 202.653 215.446C203.377 216.197 203.738 217.286 203.738 218.711V226.542ZM217.563 214.532V216.197L215.684 216.681C216.027 217.218 216.199 217.82 216.199 218.486C216.199 219.775 215.748 220.781 214.846 221.504C213.95 222.22 212.704 222.578 211.107 222.578L210.517 222.546L210.033 222.492C209.697 222.75 209.528 223.037 209.528 223.352C209.528 223.824 210.13 224.061 211.333 224.061H213.374C214.692 224.061 215.694 224.344 216.382 224.909C217.076 225.475 217.424 226.306 217.424 227.402C217.424 228.805 216.837 229.894 215.662 230.667C214.495 231.441 212.815 231.827 210.624 231.827C208.948 231.827 207.666 231.534 206.778 230.947C205.897 230.366 205.457 229.55 205.457 228.497C205.457 227.774 205.683 227.169 206.134 226.682C206.585 226.195 207.247 225.848 208.121 225.64C207.784 225.497 207.491 225.264 207.24 224.942C206.99 224.612 206.864 224.265 206.864 223.9C206.864 223.441 206.997 223.062 207.262 222.761C207.527 222.453 207.91 222.152 208.411 221.859C207.781 221.586 207.28 221.15 206.907 220.548C206.542 219.947 206.359 219.238 206.359 218.421C206.359 217.111 206.785 216.097 207.638 215.381C208.49 214.665 209.707 214.307 211.29 214.307C211.627 214.307 212.024 214.339 212.482 214.404C212.948 214.461 213.245 214.504 213.374 214.532H217.563ZM208.293 228.239C208.293 228.691 208.508 229.045 208.937 229.303C209.374 229.561 209.983 229.69 210.764 229.69C211.938 229.69 212.858 229.529 213.524 229.206C214.19 228.884 214.523 228.444 214.523 227.885C214.523 227.434 214.326 227.122 213.933 226.95C213.539 226.779 212.93 226.693 212.106 226.693H210.409C209.808 226.693 209.303 226.832 208.894 227.112C208.493 227.398 208.293 227.774 208.293 228.239ZM209.485 218.464C209.485 219.116 209.632 219.631 209.926 220.011C210.227 220.391 210.681 220.58 211.29 220.58C211.906 220.58 212.357 220.391 212.643 220.011C212.93 219.631 213.073 219.116 213.073 218.464C213.073 217.017 212.479 216.294 211.29 216.294C210.087 216.294 209.485 217.017 209.485 218.464ZM154.174 259.181C154.174 260.599 153.662 261.716 152.638 262.532C151.621 263.349 150.203 263.757 148.384 263.757C146.708 263.757 145.226 263.442 143.936 262.812V259.718C144.996 260.191 145.892 260.524 146.622 260.717C147.36 260.91 148.033 261.007 148.642 261.007C149.372 261.007 149.931 260.867 150.317 260.588C150.711 260.309 150.908 259.893 150.908 259.342C150.908 259.034 150.822 258.762 150.65 258.526C150.478 258.282 150.224 258.049 149.888 257.827C149.558 257.605 148.881 257.251 147.857 256.764C146.898 256.313 146.178 255.879 145.698 255.464C145.218 255.049 144.835 254.565 144.549 254.014C144.262 253.462 144.119 252.818 144.119 252.08C144.119 250.691 144.588 249.599 145.526 248.804C146.472 248.009 147.775 247.612 149.436 247.612C150.253 247.612 151.03 247.708 151.768 247.902C152.512 248.095 153.289 248.367 154.099 248.718L153.024 251.307C152.186 250.963 151.492 250.723 150.94 250.587C150.396 250.451 149.859 250.383 149.329 250.383C148.699 250.383 148.215 250.53 147.879 250.823C147.542 251.117 147.374 251.5 147.374 251.973C147.374 252.266 147.442 252.524 147.578 252.746C147.714 252.961 147.929 253.172 148.223 253.38C148.523 253.581 149.229 253.946 150.339 254.476C151.807 255.178 152.813 255.883 153.357 256.592C153.902 257.294 154.174 258.157 154.174 259.181ZM159.373 257.516C159.373 258.705 159.566 259.603 159.953 260.212C160.347 260.821 160.984 261.125 161.865 261.125C162.739 261.125 163.366 260.824 163.745 260.223C164.132 259.614 164.325 258.712 164.325 257.516C164.325 256.327 164.132 255.435 163.745 254.841C163.358 254.247 162.725 253.949 161.844 253.949C160.97 253.949 160.34 254.247 159.953 254.841C159.566 255.428 159.373 256.32 159.373 257.516ZM167.677 257.516C167.677 259.471 167.161 261 166.13 262.103C165.099 263.206 163.663 263.757 161.822 263.757C160.669 263.757 159.652 263.506 158.771 263.005C157.891 262.497 157.214 261.77 156.741 260.824C156.269 259.879 156.032 258.776 156.032 257.516C156.032 255.554 156.544 254.028 157.568 252.94C158.592 251.851 160.032 251.307 161.887 251.307C163.04 251.307 164.057 251.558 164.937 252.059C165.818 252.56 166.495 253.28 166.968 254.218C167.44 255.156 167.677 256.255 167.677 257.516ZM172.994 257.516C172.994 258.705 173.187 259.603 173.574 260.212C173.968 260.821 174.605 261.125 175.486 261.125C176.36 261.125 176.987 260.824 177.366 260.223C177.753 259.614 177.946 258.712 177.946 257.516C177.946 256.327 177.753 255.435 177.366 254.841C176.979 254.247 176.346 253.949 175.465 253.949C174.591 253.949 173.961 254.247 173.574 254.841C173.187 255.428 172.994 256.32 172.994 257.516ZM181.298 257.516C181.298 259.471 180.782 261 179.751 262.103C178.72 263.206 177.284 263.757 175.443 263.757C174.29 263.757 173.273 263.506 172.393 263.005C171.512 262.497 170.835 261.77 170.362 260.824C169.89 259.879 169.653 258.776 169.653 257.516C169.653 255.554 170.165 254.028 171.189 252.94C172.213 251.851 173.653 251.307 175.508 251.307C176.661 251.307 177.678 251.558 178.559 252.059C179.439 252.56 180.116 253.28 180.589 254.218C181.061 255.156 181.298 256.255 181.298 257.516ZM195.091 263.542H191.814V256.528C191.814 255.661 191.66 255.013 191.352 254.583C191.045 254.146 190.554 253.928 189.881 253.928C188.964 253.928 188.302 254.236 187.893 254.852C187.485 255.461 187.281 256.474 187.281 257.892V263.542H184.005V251.532H186.508L186.948 253.069H187.131C187.496 252.488 187.997 252.052 188.635 251.758C189.279 251.457 190.01 251.307 190.826 251.307C192.223 251.307 193.282 251.686 194.006 252.446C194.729 253.197 195.091 254.286 195.091 255.711V263.542ZM198.002 262.006C198.002 261.405 198.163 260.95 198.485 260.642C198.808 260.334 199.277 260.18 199.893 260.18C200.487 260.18 200.945 260.337 201.268 260.653C201.597 260.968 201.762 261.419 201.762 262.006C201.762 262.572 201.597 263.019 201.268 263.349C200.938 263.671 200.48 263.832 199.893 263.832C199.291 263.832 198.825 263.675 198.496 263.36C198.167 263.037 198.002 262.586 198.002 262.006ZM204.275 262.006C204.275 261.405 204.436 260.95 204.759 260.642C205.081 260.334 205.55 260.18 206.166 260.18C206.76 260.18 207.219 260.337 207.541 260.653C207.87 260.968 208.035 261.419 208.035 262.006C208.035 262.572 207.87 263.019 207.541 263.349C207.212 263.671 206.753 263.832 206.166 263.832C205.564 263.832 205.099 263.675 204.769 263.36C204.44 263.037 204.275 262.586 204.275 262.006ZM210.549 262.006C210.549 261.405 210.71 260.95 211.032 260.642C211.354 260.334 211.824 260.18 212.439 260.18C213.034 260.18 213.492 260.337 213.814 260.653C214.144 260.968 214.309 261.419 214.309 262.006C214.309 262.572 214.144 263.019 213.814 263.349C213.485 263.671 213.027 263.832 212.439 263.832C211.838 263.832 211.372 263.675 211.043 263.36C210.713 263.037 210.549 262.586 210.549 262.006Z" fill="black" fill-opacity="0.7"/>
</svg>
