<svg width="351" height="366" viewBox="0 0 351 366" fill="none" xmlns="http://www.w3.org/2000/svg">
<rect x="0.590576" y="15.0434" width="350" height="350" rx="20" fill="#FFFDCC" fill-opacity="0.5"/>
<path d="M143.243 181.237C141.99 181.237 141.019 181.709 140.332 182.655C139.644 183.593 139.301 184.903 139.301 186.586C139.301 190.088 140.615 191.839 143.243 191.839C144.346 191.839 145.681 191.563 147.25 191.012V193.805C145.961 194.342 144.521 194.611 142.931 194.611C140.647 194.611 138.9 193.92 137.689 192.537C136.479 191.148 135.874 189.157 135.874 186.565C135.874 184.932 136.171 183.503 136.765 182.279C137.36 181.047 138.212 180.105 139.322 179.453C140.439 178.795 141.746 178.465 143.243 178.465C144.768 178.465 146.301 178.834 147.841 179.572L146.766 182.279C146.179 181.999 145.588 181.756 144.994 181.548C144.4 181.34 143.816 181.237 143.243 181.237ZM152.954 188.369C152.954 189.558 153.147 190.457 153.534 191.066C153.928 191.674 154.565 191.979 155.446 191.979C156.32 191.979 156.946 191.678 157.326 191.076C157.713 190.468 157.906 189.565 157.906 188.369C157.906 187.181 157.713 186.289 157.326 185.695C156.939 185.1 156.305 184.803 155.425 184.803C154.551 184.803 153.921 185.1 153.534 185.695C153.147 186.282 152.954 187.173 152.954 188.369ZM161.258 188.369C161.258 190.325 160.742 191.853 159.711 192.956C158.679 194.059 157.244 194.611 155.403 194.611C154.25 194.611 153.233 194.36 152.352 193.859C151.471 193.35 150.795 192.623 150.322 191.678C149.849 190.733 149.613 189.63 149.613 188.369C149.613 186.407 150.125 184.882 151.149 183.793C152.173 182.705 153.613 182.16 155.468 182.16C156.621 182.16 157.637 182.411 158.518 182.912C159.399 183.414 160.076 184.133 160.549 185.072C161.021 186.01 161.258 187.109 161.258 188.369ZM174.718 194.396H171.441V187.381C171.441 186.515 171.294 185.867 171.001 185.437C170.714 185 170.26 184.782 169.636 184.782C168.799 184.782 168.19 185.089 167.81 185.705C167.431 186.321 167.241 187.335 167.241 188.745V194.396H163.965V182.386H166.468L166.908 183.922H167.091C167.413 183.371 167.878 182.941 168.487 182.633C169.096 182.318 169.794 182.16 170.582 182.16C172.379 182.16 173.597 182.748 174.234 183.922H174.524C174.846 183.364 175.319 182.93 175.942 182.622C176.572 182.314 177.281 182.16 178.069 182.16C179.43 182.16 180.457 182.511 181.152 183.213C181.854 183.908 182.205 185.025 182.205 186.565V194.396H178.918V187.381C178.918 186.515 178.771 185.867 178.477 185.437C178.191 185 177.736 184.782 177.113 184.782C176.311 184.782 175.709 185.068 175.308 185.641C174.914 186.214 174.718 187.123 174.718 188.369V194.396ZM185.438 179.282C185.438 178.214 186.033 177.681 187.221 177.681C188.41 177.681 189.005 178.214 189.005 179.282C189.005 179.79 188.854 180.187 188.553 180.474C188.26 180.753 187.816 180.893 187.221 180.893C186.033 180.893 185.438 180.356 185.438 179.282ZM188.854 194.396H185.578V182.386H188.854V194.396ZM203.388 194.396H200.112V187.381C200.112 186.515 199.958 185.867 199.65 185.437C199.342 185 198.852 184.782 198.178 184.782C197.262 184.782 196.599 185.089 196.191 185.705C195.783 186.314 195.579 187.327 195.579 188.745V194.396H192.302V182.386H194.805L195.246 183.922H195.428C195.794 183.342 196.295 182.905 196.932 182.612C197.577 182.311 198.307 182.16 199.124 182.16C200.52 182.16 201.58 182.54 202.303 183.299C203.027 184.051 203.388 185.14 203.388 186.565V194.396ZM217.214 182.386V184.051L215.334 184.534C215.677 185.072 215.849 185.673 215.849 186.339C215.849 187.628 215.398 188.634 214.496 189.358C213.601 190.074 212.355 190.432 210.758 190.432L210.167 190.4L209.683 190.346C209.347 190.604 209.178 190.89 209.178 191.205C209.178 191.678 209.78 191.914 210.983 191.914H213.024C214.342 191.914 215.344 192.197 216.032 192.763C216.727 193.329 217.074 194.159 217.074 195.255C217.074 196.659 216.487 197.747 215.312 198.521C214.145 199.294 212.466 199.681 210.274 199.681C208.598 199.681 207.316 199.387 206.428 198.8C205.548 198.22 205.107 197.404 205.107 196.351C205.107 195.628 205.333 195.022 205.784 194.535C206.235 194.048 206.898 193.701 207.771 193.493C207.435 193.35 207.141 193.117 206.89 192.795C206.64 192.466 206.514 192.118 206.514 191.753C206.514 191.295 206.647 190.915 206.912 190.615C207.177 190.307 207.56 190.006 208.061 189.712C207.431 189.44 206.93 189.003 206.557 188.402C206.192 187.8 206.01 187.091 206.01 186.275C206.01 184.964 206.436 183.951 207.288 183.235C208.14 182.519 209.358 182.16 210.94 182.16C211.277 182.16 211.674 182.193 212.133 182.257C212.598 182.314 212.895 182.357 213.024 182.386H217.214ZM207.943 196.093C207.943 196.544 208.158 196.899 208.588 197.157C209.024 197.414 209.633 197.543 210.414 197.543C211.588 197.543 212.509 197.382 213.175 197.06C213.841 196.738 214.174 196.297 214.174 195.739C214.174 195.287 213.977 194.976 213.583 194.804C213.189 194.632 212.58 194.546 211.757 194.546H210.059C209.458 194.546 208.953 194.686 208.545 194.965C208.144 195.252 207.943 195.628 207.943 196.093ZM209.135 186.318C209.135 186.969 209.282 187.485 209.576 187.865C209.877 188.244 210.331 188.434 210.94 188.434C211.556 188.434 212.007 188.244 212.294 187.865C212.58 187.485 212.723 186.969 212.723 186.318C212.723 184.871 212.129 184.148 210.94 184.148C209.737 184.148 209.135 184.871 209.135 186.318ZM153.824 227.034C153.824 228.452 153.312 229.57 152.288 230.386C151.271 231.202 149.853 231.611 148.034 231.611C146.358 231.611 144.876 231.296 143.587 230.665V227.572C144.647 228.044 145.542 228.377 146.272 228.571C147.01 228.764 147.683 228.861 148.292 228.861C149.022 228.861 149.581 228.721 149.968 228.442C150.361 228.162 150.558 227.747 150.558 227.196C150.558 226.888 150.472 226.616 150.301 226.379C150.129 226.136 149.874 225.903 149.538 225.681C149.208 225.459 148.532 225.104 147.508 224.617C146.548 224.166 145.828 223.733 145.348 223.318C144.869 222.902 144.485 222.419 144.199 221.867C143.913 221.316 143.769 220.672 143.769 219.934C143.769 218.545 144.238 217.452 145.177 216.658C146.122 215.863 147.425 215.465 149.087 215.465C149.903 215.465 150.68 215.562 151.418 215.755C152.163 215.949 152.94 216.221 153.749 216.572L152.675 219.16C151.837 218.817 151.142 218.577 150.591 218.441C150.046 218.305 149.509 218.237 148.979 218.237C148.349 218.237 147.866 218.383 147.529 218.677C147.192 218.971 147.024 219.354 147.024 219.826C147.024 220.12 147.092 220.378 147.228 220.6C147.364 220.815 147.579 221.026 147.873 221.234C148.174 221.434 148.879 221.799 149.989 222.329C151.457 223.031 152.463 223.737 153.008 224.446C153.552 225.147 153.824 226.01 153.824 227.034ZM159.023 225.369C159.023 226.558 159.217 227.457 159.603 228.066C159.997 228.674 160.635 228.979 161.515 228.979C162.389 228.979 163.016 228.678 163.395 228.076C163.782 227.468 163.975 226.565 163.975 225.369C163.975 224.181 163.782 223.289 163.395 222.695C163.009 222.1 162.375 221.803 161.494 221.803C160.62 221.803 159.99 222.1 159.603 222.695C159.217 223.282 159.023 224.173 159.023 225.369ZM167.327 225.369C167.327 227.325 166.811 228.853 165.78 229.956C164.749 231.059 163.313 231.611 161.472 231.611C160.319 231.611 159.302 231.36 158.422 230.859C157.541 230.35 156.864 229.623 156.391 228.678C155.919 227.733 155.682 226.63 155.682 225.369C155.682 223.407 156.194 221.882 157.219 220.793C158.243 219.705 159.682 219.16 161.537 219.16C162.69 219.16 163.707 219.411 164.588 219.912C165.469 220.414 166.145 221.133 166.618 222.072C167.091 223.01 167.327 224.109 167.327 225.369ZM172.644 225.369C172.644 226.558 172.838 227.457 173.224 228.066C173.618 228.674 174.256 228.979 175.136 228.979C176.01 228.979 176.637 228.678 177.016 228.076C177.403 227.468 177.596 226.565 177.596 225.369C177.596 224.181 177.403 223.289 177.016 222.695C176.63 222.1 175.996 221.803 175.115 221.803C174.241 221.803 173.611 222.1 173.224 222.695C172.838 223.282 172.644 224.173 172.644 225.369ZM180.948 225.369C180.948 227.325 180.432 228.853 179.401 229.956C178.37 231.059 176.934 231.611 175.094 231.611C173.941 231.611 172.924 231.36 172.043 230.859C171.162 230.35 170.485 229.623 170.012 228.678C169.54 227.733 169.303 226.63 169.303 225.369C169.303 223.407 169.816 221.882 170.84 220.793C171.864 219.705 173.303 219.16 175.158 219.16C176.311 219.16 177.328 219.411 178.209 219.912C179.09 220.414 179.766 221.133 180.239 222.072C180.712 223.01 180.948 224.109 180.948 225.369ZM194.741 231.396H191.465V224.381C191.465 223.515 191.311 222.867 191.003 222.437C190.695 222 190.204 221.782 189.531 221.782C188.614 221.782 187.952 222.089 187.544 222.705C187.135 223.314 186.931 224.327 186.931 225.745V231.396H183.655V219.386H186.158L186.598 220.922H186.781C187.146 220.342 187.648 219.905 188.285 219.612C188.929 219.311 189.66 219.16 190.476 219.16C191.873 219.16 192.933 219.54 193.656 220.299C194.379 221.051 194.741 222.14 194.741 223.565V231.396ZM197.652 229.86C197.652 229.258 197.813 228.803 198.135 228.495C198.458 228.187 198.927 228.034 199.543 228.034C200.137 228.034 200.595 228.191 200.918 228.506C201.247 228.821 201.412 229.272 201.412 229.86C201.412 230.425 201.247 230.873 200.918 231.202C200.588 231.525 200.13 231.686 199.543 231.686C198.941 231.686 198.476 231.528 198.146 231.213C197.817 230.891 197.652 230.44 197.652 229.86ZM203.926 229.86C203.926 229.258 204.087 228.803 204.409 228.495C204.731 228.187 205.2 228.034 205.816 228.034C206.411 228.034 206.869 228.191 207.191 228.506C207.521 228.821 207.685 229.272 207.685 229.86C207.685 230.425 207.521 230.873 207.191 231.202C206.862 231.525 206.403 231.686 205.816 231.686C205.215 231.686 204.749 231.528 204.42 231.213C204.09 230.891 203.926 230.44 203.926 229.86ZM210.199 229.86C210.199 229.258 210.36 228.803 210.682 228.495C211.005 228.187 211.474 228.034 212.09 228.034C212.684 228.034 213.142 228.191 213.465 228.506C213.794 228.821 213.959 229.272 213.959 229.86C213.959 230.425 213.794 230.873 213.465 231.202C213.135 231.525 212.677 231.686 212.09 231.686C211.488 231.686 211.023 231.528 210.693 231.213C210.364 230.891 210.199 230.44 210.199 229.86Z" fill="#3E3B36"/>
</svg>
