<svg width="920" height="69" viewBox="0 0 920 69" fill="none" xmlns="http://www.w3.org/2000/svg">
<rect y="0.749512" width="167.852" height="68" rx="2" fill="#F3DDCC"/>
<rect x="188.038" y="0.749512" width="167.852" height="68" rx="2" fill="#F3DDCC"/>
<rect x="376.074" y="0.749512" width="167.852" height="68" rx="2" fill="#F3DDCC"/>
<rect x="564.112" y="0.749512" width="167.852" height="68" rx="2" fill="#F3DDCC"/>
<rect x="752.146" y="0.749512" width="167.852" height="68" rx="2" fill="#F3DDCC"/>
<path d="M187.202 35.5685C187.595 35.1804 187.598 34.5472 187.21 34.1543L180.885 27.7515C180.497 27.3586 179.864 27.3548 179.471 27.7429C179.078 28.131 179.074 28.7642 179.463 29.1571L185.085 34.8484L179.393 40.4706C179 40.8587 178.997 41.4919 179.385 41.8848C179.773 42.2777 180.406 42.2815 180.799 41.8934L187.202 35.5685ZM168.908 35.7495L186.493 35.8571L186.505 33.8571L168.92 33.7495L168.908 35.7495Z" fill="black"/>
<path d="M376.304 35.5619C376.697 35.1737 376.701 34.5405 376.313 34.1477L369.991 27.7473C369.603 27.3545 368.969 27.3509 368.576 27.7391C368.183 28.1274 368.179 28.7606 368.567 29.1533L374.187 34.8426L368.494 40.4668C368.101 40.8551 368.097 41.4882 368.485 41.881C368.872 42.2737 369.506 42.2774 369.899 41.8891L376.304 35.5619ZM358.01 35.7495L375.595 35.8507L375.608 33.8508L358.023 33.7495L358.01 35.7495Z" fill="black"/>
<path d="M562.214 35.5619C562.607 35.1737 562.611 34.5405 562.223 34.1477L555.901 27.7473C555.513 27.3545 554.88 27.3509 554.487 27.7391C554.094 28.1274 554.089 28.7606 554.477 29.1533L560.097 34.8426L554.404 40.4668C554.011 40.8551 554.007 41.4882 554.395 41.881C554.783 42.2737 555.416 42.2774 555.809 41.8891L562.214 35.5619ZM543.92 35.7495L561.505 35.8507L561.518 33.8508L543.933 33.7495L543.92 35.7495Z" fill="black"/>
<path d="M752.376 35.5619C752.769 35.1737 752.773 34.5405 752.385 34.1477L746.063 27.7473C745.675 27.3545 745.042 27.3509 744.649 27.7391C744.256 28.1274 744.252 28.7606 744.639 29.1533L750.259 34.8426L744.566 40.4668C744.173 40.8551 744.169 41.4882 744.557 41.881C744.945 42.2737 745.578 42.2774 745.971 41.8891L752.376 35.5619ZM734.082 35.7495L751.667 35.8507L751.68 33.8508L734.095 33.7495L734.082 35.7495Z" fill="black"/>
<path d="M33.1651 23.7495H41.7151C43.9351 23.7495 45.8951 24.1995 47.5951 25.0995C49.2951 25.9795 50.6151 27.2195 51.5551 28.8195C52.4951 30.3995 52.9651 32.2095 52.9651 34.2495C52.9651 36.2895 52.4951 38.1095 51.5551 39.7095C50.6151 41.2895 49.2951 42.5295 47.5951 43.4295C45.8951 44.3095 43.9351 44.7495 41.7151 44.7495H33.1651V23.7495ZM41.5951 42.8295C43.4351 42.8295 45.0451 42.4695 46.4251 41.7495C47.8051 41.0095 48.8751 39.9995 49.6351 38.7195C50.3951 37.4195 50.7751 35.9295 50.7751 34.2495C50.7751 32.5695 50.3951 31.0895 49.6351 29.8095C48.8751 28.5095 47.8051 27.4995 46.4251 26.7795C45.0451 26.0395 43.4351 25.6695 41.5951 25.6695H35.3851V42.8295H41.5951ZM71.2403 37.5195H58.0403C58.1603 39.1595 58.7903 40.4895 59.9303 41.5095C61.0703 42.5095 62.5103 43.0095 64.2503 43.0095C65.2303 43.0095 66.1303 42.8395 66.9503 42.4995C67.7703 42.1395 68.4803 41.6195 69.0803 40.9395L70.2803 42.3195C69.5803 43.1595 68.7003 43.7995 67.6403 44.2395C66.6003 44.6795 65.4503 44.8995 64.1903 44.8995C62.5703 44.8995 61.1303 44.5595 59.8703 43.8795C58.6303 43.1795 57.6603 42.2195 56.9603 40.9995C56.2603 39.7795 55.9103 38.3995 55.9103 36.8595C55.9103 35.3195 56.2403 33.9395 56.9003 32.7195C57.5803 31.4995 58.5003 30.5495 59.6603 29.8695C60.8403 29.1895 62.1603 28.8495 63.6203 28.8495C65.0803 28.8495 66.3903 29.1895 67.5503 29.8695C68.7103 30.5495 69.6203 31.4995 70.2803 32.7195C70.9403 33.9195 71.2703 35.2995 71.2703 36.8595L71.2403 37.5195ZM63.6203 30.6795C62.1003 30.6795 60.8203 31.1695 59.7803 32.1495C58.7603 33.1095 58.1803 34.3695 58.0403 35.9295H69.2303C69.0903 34.3695 68.5003 33.1095 67.4603 32.1495C66.4403 31.1695 65.1603 30.6795 63.6203 30.6795ZM80.8257 24.1395C79.9057 24.1395 79.2057 24.3895 78.7257 24.8895C78.2657 25.3895 78.0357 26.1295 78.0357 27.1095V28.9695H82.8957V30.7695H78.0957V44.7495H75.9657V30.7695H73.1457V28.9695H75.9657V27.0195C75.9657 25.5795 76.3757 24.4395 77.1957 23.5995C78.0357 22.7595 79.2157 22.3395 80.7357 22.3395C81.3357 22.3395 81.9157 22.4295 82.4757 22.6095C83.0357 22.7695 83.5057 23.0095 83.8857 23.3295L83.1657 24.9195C82.5457 24.3995 81.7657 24.1395 80.8257 24.1395ZM88.1757 28.9695H90.3057V44.7495H88.1757V28.9695ZM89.2557 25.5195C88.8157 25.5195 88.4457 25.3695 88.1457 25.0695C87.8457 24.7695 87.6957 24.4095 87.6957 23.9895C87.6957 23.5895 87.8457 23.2395 88.1457 22.9395C88.4457 22.6395 88.8157 22.4895 89.2557 22.4895C89.6957 22.4895 90.0657 22.6395 90.3657 22.9395C90.6657 23.2195 90.8157 23.5595 90.8157 23.9595C90.8157 24.3995 90.6657 24.7695 90.3657 25.0695C90.0657 25.3695 89.6957 25.5195 89.2557 25.5195ZM104.3 28.8495C106.28 28.8495 107.85 29.4295 109.01 30.5895C110.19 31.7295 110.78 33.3995 110.78 35.5995V44.7495H108.65V35.8095C108.65 34.1695 108.24 32.9195 107.42 32.0595C106.6 31.1995 105.43 30.7695 103.91 30.7695C102.21 30.7695 100.86 31.2795 99.86 32.2995C98.88 33.2995 98.39 34.6895 98.39 36.4695V44.7495H96.26V28.9695H98.3V31.8795C98.88 30.9195 99.68 30.1795 100.7 29.6595C101.74 29.1195 102.94 28.8495 104.3 28.8495ZM130.361 37.5195H117.161C117.281 39.1595 117.911 40.4895 119.051 41.5095C120.191 42.5095 121.631 43.0095 123.371 43.0095C124.351 43.0095 125.251 42.8395 126.071 42.4995C126.891 42.1395 127.601 41.6195 128.201 40.9395L129.401 42.3195C128.701 43.1595 127.821 43.7995 126.761 44.2395C125.721 44.6795 124.571 44.8995 123.311 44.8995C121.691 44.8995 120.251 44.5595 118.991 43.8795C117.751 43.1795 116.781 42.2195 116.081 40.9995C115.381 39.7795 115.031 38.3995 115.031 36.8595C115.031 35.3195 115.361 33.9395 116.021 32.7195C116.701 31.4995 117.621 30.5495 118.781 29.8695C119.961 29.1895 121.281 28.8495 122.741 28.8495C124.201 28.8495 125.511 29.1895 126.671 29.8695C127.831 30.5495 128.741 31.4995 129.401 32.7195C130.061 33.9195 130.391 35.2995 130.391 36.8595L130.361 37.5195ZM122.741 30.6795C121.221 30.6795 119.941 31.1695 118.901 32.1495C117.881 33.1095 117.301 34.3695 117.161 35.9295H128.351C128.211 34.3695 127.621 33.1095 126.581 32.1495C125.561 31.1695 124.281 30.6795 122.741 30.6795Z" fill="black"/>
<path d="M218.017 23.7495H226.567C228.787 23.7495 230.747 24.1995 232.447 25.0995C234.147 25.9795 235.467 27.2195 236.407 28.8195C237.347 30.3995 237.817 32.2095 237.817 34.2495C237.817 36.2895 237.347 38.1095 236.407 39.7095C235.467 41.2895 234.147 42.5295 232.447 43.4295C230.747 44.3095 228.787 44.7495 226.567 44.7495H218.017V23.7495ZM226.447 42.8295C228.287 42.8295 229.897 42.4695 231.277 41.7495C232.657 41.0095 233.727 39.9995 234.487 38.7195C235.247 37.4195 235.627 35.9295 235.627 34.2495C235.627 32.5695 235.247 31.0895 234.487 29.8095C233.727 28.5095 232.657 27.4995 231.277 26.7795C229.897 26.0395 228.287 25.6695 226.447 25.6695H220.237V42.8295H226.447ZM256.092 37.5195H242.892C243.012 39.1595 243.642 40.4895 244.782 41.5095C245.922 42.5095 247.362 43.0095 249.102 43.0095C250.082 43.0095 250.982 42.8395 251.802 42.4995C252.622 42.1395 253.332 41.6195 253.932 40.9395L255.132 42.3195C254.432 43.1595 253.552 43.7995 252.492 44.2395C251.452 44.6795 250.302 44.8995 249.042 44.8995C247.422 44.8995 245.982 44.5595 244.722 43.8795C243.482 43.1795 242.512 42.2195 241.812 40.9995C241.112 39.7795 240.762 38.3995 240.762 36.8595C240.762 35.3195 241.092 33.9395 241.752 32.7195C242.432 31.4995 243.352 30.5495 244.512 29.8695C245.692 29.1895 247.012 28.8495 248.472 28.8495C249.932 28.8495 251.242 29.1895 252.402 29.8695C253.562 30.5495 254.472 31.4995 255.132 32.7195C255.792 33.9195 256.122 35.2995 256.122 36.8595L256.092 37.5195ZM248.472 30.6795C246.952 30.6795 245.672 31.1695 244.632 32.1495C243.612 33.1095 243.032 34.3695 242.892 35.9295H254.082C253.942 34.3695 253.352 33.1095 252.312 32.1495C251.292 31.1695 250.012 30.6795 248.472 30.6795ZM264.687 44.8995C263.407 44.8995 262.177 44.7195 260.997 44.3595C259.837 43.9795 258.927 43.5095 258.267 42.9495L259.227 41.2695C259.887 41.7895 260.717 42.2195 261.717 42.5595C262.717 42.8795 263.757 43.0395 264.837 43.0395C266.277 43.0395 267.337 42.8195 268.017 42.3795C268.717 41.9195 269.067 41.2795 269.067 40.4595C269.067 39.8795 268.877 39.4295 268.497 39.1095C268.117 38.7695 267.637 38.5195 267.057 38.3595C266.477 38.1795 265.707 38.0095 264.747 37.8495C263.467 37.6095 262.437 37.3695 261.657 37.1295C260.877 36.8695 260.207 36.4395 259.647 35.8395C259.107 35.2395 258.837 34.4095 258.837 33.3495C258.837 32.0295 259.387 30.9495 260.487 30.1095C261.587 29.2695 263.117 28.8495 265.077 28.8495C266.097 28.8495 267.117 28.9895 268.137 29.2695C269.157 29.5295 269.997 29.8795 270.657 30.3195L269.727 32.0295C268.427 31.1295 266.877 30.6795 265.077 30.6795C263.717 30.6795 262.687 30.9195 261.987 31.3995C261.307 31.8795 260.967 32.5095 260.967 33.2895C260.967 33.8895 261.157 34.3695 261.537 34.7295C261.937 35.0895 262.427 35.3595 263.007 35.5395C263.587 35.6995 264.387 35.8695 265.407 36.0495C266.667 36.2895 267.677 36.5295 268.437 36.7695C269.197 37.0095 269.847 37.4195 270.387 37.9995C270.927 38.5795 271.197 39.3795 271.197 40.3995C271.197 41.7795 270.617 42.8795 269.457 43.6995C268.317 44.4995 266.727 44.8995 264.687 44.8995ZM275.135 28.9695H277.265V44.7495H275.135V28.9695ZM276.215 25.5195C275.775 25.5195 275.405 25.3695 275.105 25.0695C274.805 24.7695 274.655 24.4095 274.655 23.9895C274.655 23.5895 274.805 23.2395 275.105 22.9395C275.405 22.6395 275.775 22.4895 276.215 22.4895C276.655 22.4895 277.025 22.6395 277.325 22.9395C277.625 23.2195 277.775 23.5595 277.775 23.9595C277.775 24.3995 277.625 24.7695 277.325 25.0695C277.025 25.3695 276.655 25.5195 276.215 25.5195ZM297.802 28.9695V42.8295C297.802 45.5095 297.142 47.4895 295.822 48.7695C294.522 50.0695 292.552 50.7195 289.912 50.7195C288.452 50.7195 287.062 50.4995 285.742 50.0595C284.442 49.6395 283.382 49.0495 282.562 48.2895L283.642 46.6695C284.402 47.3495 285.322 47.8795 286.402 48.2595C287.502 48.6395 288.652 48.8295 289.852 48.8295C291.852 48.8295 293.322 48.3595 294.262 47.4195C295.202 46.4995 295.672 45.0595 295.672 43.0995V41.0895C295.012 42.0895 294.142 42.8495 293.062 43.3695C292.002 43.8895 290.822 44.1495 289.522 44.1495C288.042 44.1495 286.692 43.8295 285.472 43.1895C284.272 42.5295 283.322 41.6195 282.622 40.4595C281.942 39.2795 281.602 37.9495 281.602 36.4695C281.602 34.9895 281.942 33.6695 282.622 32.5095C283.322 31.3495 284.272 30.4495 285.472 29.8095C286.672 29.1695 288.022 28.8495 289.522 28.8495C290.862 28.8495 292.072 29.1195 293.152 29.6595C294.232 30.1995 295.102 30.9795 295.762 31.9995V28.9695H297.802ZM289.732 42.2595C290.872 42.2595 291.902 42.0195 292.822 41.5395C293.742 41.0395 294.452 40.3495 294.952 39.4695C295.472 38.5895 295.732 37.5895 295.732 36.4695C295.732 35.3495 295.472 34.3595 294.952 33.4995C294.452 32.6195 293.742 31.9395 292.822 31.4595C291.922 30.9595 290.892 30.7095 289.732 30.7095C288.592 30.7095 287.562 30.9495 286.642 31.4295C285.742 31.9095 285.032 32.5895 284.512 33.4695C284.012 34.3495 283.762 35.3495 283.762 36.4695C283.762 37.5895 284.012 38.5895 284.512 39.4695C285.032 40.3495 285.742 41.0395 286.642 41.5395C287.562 42.0195 288.592 42.2595 289.732 42.2595ZM311.798 28.8495C313.778 28.8495 315.348 29.4295 316.508 30.5895C317.688 31.7295 318.278 33.3995 318.278 35.5995V44.7495H316.148V35.8095C316.148 34.1695 315.738 32.9195 314.918 32.0595C314.098 31.1995 312.928 30.7695 311.408 30.7695C309.708 30.7695 308.358 31.2795 307.358 32.2995C306.378 33.2995 305.888 34.6895 305.888 36.4695V44.7495H303.758V28.9695H305.798V31.8795C306.378 30.9195 307.178 30.1795 308.198 29.6595C309.238 29.1195 310.438 28.8495 311.798 28.8495Z" fill="black"/>
<path d="M433.092 33.9195C434.472 34.2195 435.532 34.8195 436.272 35.7195C437.032 36.5995 437.412 37.7395 437.412 39.1395C437.412 40.9395 436.742 42.3295 435.402 43.3095C434.082 44.2695 432.122 44.7495 429.522 44.7495H419.862V23.7495H428.922C431.262 23.7495 433.072 24.2195 434.352 25.1595C435.652 26.0995 436.302 27.4295 436.302 29.1495C436.302 30.3095 436.012 31.2995 435.432 32.1195C434.872 32.9195 434.092 33.5195 433.092 33.9195ZM422.082 25.5795V33.1995H428.772C430.472 33.1995 431.782 32.8795 432.702 32.2395C433.622 31.5795 434.082 30.6295 434.082 29.3895C434.082 28.1495 433.622 27.2095 432.702 26.5695C431.782 25.9095 430.472 25.5795 428.772 25.5795H422.082ZM429.492 42.9195C431.372 42.9195 432.792 42.5995 433.752 41.9595C434.712 41.3195 435.192 40.3195 435.192 38.9595C435.192 36.3395 433.292 35.0295 429.492 35.0295H422.082V42.9195H429.492ZM456.25 28.9695V44.7495H454.21V41.8695C453.65 42.8295 452.88 43.5795 451.9 44.1195C450.92 44.6395 449.8 44.8995 448.54 44.8995C446.48 44.8995 444.85 44.3295 443.65 43.1895C442.47 42.0295 441.88 40.3395 441.88 38.1195V28.9695H444.01V37.9095C444.01 39.5695 444.42 40.8295 445.24 41.6895C446.06 42.5495 447.23 42.9795 448.75 42.9795C450.41 42.9795 451.72 42.4795 452.68 41.4795C453.64 40.4595 454.12 39.0495 454.12 37.2495V28.9695H456.25ZM462.215 28.9695H464.345V44.7495H462.215V28.9695ZM463.295 25.5195C462.855 25.5195 462.485 25.3695 462.185 25.0695C461.885 24.7695 461.735 24.4095 461.735 23.9895C461.735 23.5895 461.885 23.2395 462.185 22.9395C462.485 22.6395 462.855 22.4895 463.295 22.4895C463.735 22.4895 464.105 22.6395 464.405 22.9395C464.705 23.2195 464.855 23.5595 464.855 23.9595C464.855 24.3995 464.705 24.7695 464.405 25.0695C464.105 25.3695 463.735 25.5195 463.295 25.5195ZM470.272 22.4895H472.402V44.7495H470.272V22.4895ZM492.728 22.4895V44.7495H490.688V41.6295C490.048 42.6895 489.198 43.4995 488.138 44.0595C487.098 44.6195 485.918 44.8995 484.598 44.8995C483.118 44.8995 481.778 44.5595 480.578 43.8795C479.378 43.1995 478.438 42.2495 477.758 41.0295C477.078 39.8095 476.738 38.4195 476.738 36.8595C476.738 35.2995 477.078 33.9095 477.758 32.6895C478.438 31.4695 479.378 30.5295 480.578 29.8695C481.778 29.1895 483.118 28.8495 484.598 28.8495C485.878 28.8495 487.028 29.1195 488.048 29.6595C489.088 30.1795 489.938 30.9495 490.598 31.9695V22.4895H492.728ZM484.778 43.0095C485.878 43.0095 486.868 42.7595 487.748 42.2595C488.648 41.7395 489.348 41.0095 489.848 40.0695C490.368 39.1295 490.628 38.0595 490.628 36.8595C490.628 35.6595 490.368 34.5895 489.848 33.6495C489.348 32.7095 488.648 31.9895 487.748 31.4895C486.868 30.9695 485.878 30.7095 484.778 30.7095C483.658 30.7095 482.648 30.9695 481.748 31.4895C480.868 31.9895 480.168 32.7095 479.648 33.6495C479.148 34.5895 478.898 35.6595 478.898 36.8595C478.898 38.0595 479.148 39.1295 479.648 40.0695C480.168 41.0095 480.868 41.7395 481.748 42.2595C482.648 42.7595 483.658 43.0095 484.778 43.0095Z" fill="black"/>
<path d="M622.605 25.6695H615.225V23.7495H632.205V25.6695H624.825V44.7495H622.605V25.6695ZM647.401 37.5195H634.201C634.321 39.1595 634.951 40.4895 636.091 41.5095C637.231 42.5095 638.671 43.0095 640.411 43.0095C641.391 43.0095 642.291 42.8395 643.111 42.4995C643.931 42.1395 644.641 41.6195 645.241 40.9395L646.441 42.3195C645.741 43.1595 644.861 43.7995 643.801 44.2395C642.761 44.6795 641.611 44.8995 640.351 44.8995C638.731 44.8995 637.291 44.5595 636.031 43.8795C634.791 43.1795 633.821 42.2195 633.121 40.9995C632.421 39.7795 632.071 38.3995 632.071 36.8595C632.071 35.3195 632.401 33.9395 633.061 32.7195C633.741 31.4995 634.661 30.5495 635.821 29.8695C637.001 29.1895 638.321 28.8495 639.781 28.8495C641.241 28.8495 642.551 29.1895 643.711 29.8695C644.871 30.5495 645.781 31.4995 646.441 32.7195C647.101 33.9195 647.431 35.2995 647.431 36.8595L647.401 37.5195ZM639.781 30.6795C638.261 30.6795 636.981 31.1695 635.941 32.1495C634.921 33.1095 634.341 34.3695 634.201 35.9295H645.391C645.251 34.3695 644.661 33.1095 643.621 32.1495C642.601 31.1695 641.321 30.6795 639.781 30.6795ZM655.997 44.8995C654.717 44.8995 653.487 44.7195 652.307 44.3595C651.147 43.9795 650.237 43.5095 649.577 42.9495L650.537 41.2695C651.197 41.7895 652.027 42.2195 653.027 42.5595C654.027 42.8795 655.067 43.0395 656.147 43.0395C657.587 43.0395 658.647 42.8195 659.327 42.3795C660.027 41.9195 660.377 41.2795 660.377 40.4595C660.377 39.8795 660.187 39.4295 659.807 39.1095C659.427 38.7695 658.947 38.5195 658.367 38.3595C657.787 38.1795 657.017 38.0095 656.057 37.8495C654.777 37.6095 653.747 37.3695 652.967 37.1295C652.187 36.8695 651.517 36.4395 650.957 35.8395C650.417 35.2395 650.147 34.4095 650.147 33.3495C650.147 32.0295 650.697 30.9495 651.797 30.1095C652.897 29.2695 654.427 28.8495 656.387 28.8495C657.407 28.8495 658.427 28.9895 659.447 29.2695C660.467 29.5295 661.307 29.8795 661.967 30.3195L661.037 32.0295C659.737 31.1295 658.187 30.6795 656.387 30.6795C655.027 30.6795 653.997 30.9195 653.297 31.3995C652.617 31.8795 652.277 32.5095 652.277 33.2895C652.277 33.8895 652.467 34.3695 652.847 34.7295C653.247 35.0895 653.737 35.3595 654.317 35.5395C654.897 35.6995 655.697 35.8695 656.717 36.0495C657.977 36.2895 658.987 36.5295 659.747 36.7695C660.507 37.0095 661.157 37.4195 661.697 37.9995C662.237 38.5795 662.507 39.3795 662.507 40.3995C662.507 41.7795 661.927 42.8795 660.767 43.6995C659.627 44.4995 658.037 44.8995 655.997 44.8995ZM674.755 43.7895C674.355 44.1495 673.855 44.4295 673.255 44.6295C672.675 44.8095 672.065 44.8995 671.425 44.8995C669.945 44.8995 668.805 44.4995 668.005 43.6995C667.205 42.8995 666.805 41.7695 666.805 40.3095V30.7695H663.985V28.9695H666.805V25.5195H668.935V28.9695H673.735V30.7695H668.935V40.1895C668.935 41.1295 669.165 41.8495 669.625 42.3495C670.105 42.8295 670.785 43.0695 671.665 43.0695C672.105 43.0695 672.525 42.9995 672.925 42.8595C673.345 42.7195 673.705 42.5195 674.005 42.2595L674.755 43.7895Z" fill="black"/>
<path d="M788.001 23.7495V44.7495H785.871V27.9495L777.621 42.0795H776.571L768.321 28.0395V44.7495H766.191V23.7495H768.021L777.141 39.3195L786.171 23.7495H788.001ZM799.914 28.8495C801.974 28.8495 803.554 29.3695 804.654 30.4095C805.754 31.4295 806.304 32.9495 806.304 34.9695V44.7495H804.264V42.2895C803.784 43.1095 803.074 43.7495 802.134 44.2095C801.214 44.6695 800.114 44.8995 798.834 44.8995C797.074 44.8995 795.674 44.4795 794.634 43.6395C793.594 42.7995 793.074 41.6895 793.074 40.3095C793.074 38.9695 793.554 37.8895 794.514 37.0695C795.494 36.2495 797.044 35.8395 799.164 35.8395H804.174V34.8795C804.174 33.5195 803.794 32.4895 803.034 31.7895C802.274 31.0695 801.164 30.7095 799.704 30.7095C798.704 30.7095 797.744 30.8795 796.824 31.2195C795.904 31.5395 795.114 31.9895 794.454 32.5695L793.494 30.9795C794.294 30.2995 795.254 29.7795 796.374 29.4195C797.494 29.0395 798.674 28.8495 799.914 28.8495ZM799.164 43.2195C800.364 43.2195 801.394 42.9495 802.254 42.4095C803.114 41.8495 803.754 41.0495 804.174 40.0095V37.4295H799.224C796.524 37.4295 795.174 38.3695 795.174 40.2495C795.174 41.1695 795.524 41.8995 796.224 42.4395C796.924 42.9595 797.904 43.2195 799.164 43.2195ZM812.089 28.9695H814.219V44.7495H812.089V28.9695ZM813.169 25.5195C812.729 25.5195 812.359 25.3695 812.059 25.0695C811.759 24.7695 811.609 24.4095 811.609 23.9895C811.609 23.5895 811.759 23.2395 812.059 22.9395C812.359 22.6395 812.729 22.4895 813.169 22.4895C813.609 22.4895 813.979 22.6395 814.279 22.9395C814.579 23.2195 814.729 23.5595 814.729 23.9595C814.729 24.3995 814.579 24.7695 814.279 25.0695C813.979 25.3695 813.609 25.5195 813.169 25.5195ZM828.186 28.8495C830.166 28.8495 831.736 29.4295 832.896 30.5895C834.076 31.7295 834.666 33.3995 834.666 35.5995V44.7495H832.536V35.8095C832.536 34.1695 832.126 32.9195 831.306 32.0595C830.486 31.1995 829.316 30.7695 827.796 30.7695C826.096 30.7695 824.746 31.2795 823.746 32.2995C822.766 33.2995 822.276 34.6895 822.276 36.4695V44.7495H820.146V28.9695H822.186V31.8795C822.766 30.9195 823.566 30.1795 824.586 29.6595C825.626 29.1195 826.826 28.8495 828.186 28.8495ZM848.759 43.7895C848.359 44.1495 847.859 44.4295 847.259 44.6295C846.679 44.8095 846.069 44.8995 845.429 44.8995C843.949 44.8995 842.809 44.4995 842.009 43.6995C841.209 42.8995 840.809 41.7695 840.809 40.3095V30.7695H837.989V28.9695H840.809V25.5195H842.939V28.9695H847.739V30.7695H842.939V40.1895C842.939 41.1295 843.169 41.8495 843.629 42.3495C844.109 42.8295 844.789 43.0695 845.669 43.0695C846.109 43.0695 846.529 42.9995 846.929 42.8595C847.349 42.7195 847.709 42.5195 848.009 42.2595L848.759 43.7895ZM858.156 28.8495C860.216 28.8495 861.796 29.3695 862.896 30.4095C863.996 31.4295 864.546 32.9495 864.546 34.9695V44.7495H862.506V42.2895C862.026 43.1095 861.316 43.7495 860.376 44.2095C859.456 44.6695 858.356 44.8995 857.076 44.8995C855.316 44.8995 853.916 44.4795 852.876 43.6395C851.836 42.7995 851.316 41.6895 851.316 40.3095C851.316 38.9695 851.796 37.8895 852.756 37.0695C853.736 36.2495 855.286 35.8395 857.406 35.8395H862.416V34.8795C862.416 33.5195 862.036 32.4895 861.276 31.7895C860.516 31.0695 859.406 30.7095 857.946 30.7095C856.946 30.7095 855.986 30.8795 855.066 31.2195C854.146 31.5395 853.356 31.9895 852.696 32.5695L851.736 30.9795C852.536 30.2995 853.496 29.7795 854.616 29.4195C855.736 29.0395 856.916 28.8495 858.156 28.8495ZM857.406 43.2195C858.606 43.2195 859.636 42.9495 860.496 42.4095C861.356 41.8495 861.996 41.0495 862.416 40.0095V37.4295H857.466C854.766 37.4295 853.416 38.3695 853.416 40.2495C853.416 41.1695 853.766 41.8995 854.466 42.4395C855.166 42.9595 856.146 43.2195 857.406 43.2195ZM870.331 28.9695H872.461V44.7495H870.331V28.9695ZM871.411 25.5195C870.971 25.5195 870.601 25.3695 870.301 25.0695C870.001 24.7695 869.851 24.4095 869.851 23.9895C869.851 23.5895 870.001 23.2395 870.301 22.9395C870.601 22.6395 870.971 22.4895 871.411 22.4895C871.851 22.4895 872.221 22.6395 872.521 22.9395C872.821 23.2195 872.971 23.5595 872.971 23.9595C872.971 24.3995 872.821 24.7695 872.521 25.0695C872.221 25.3695 871.851 25.5195 871.411 25.5195ZM886.428 28.8495C888.408 28.8495 889.978 29.4295 891.138 30.5895C892.318 31.7295 892.908 33.3995 892.908 35.5995V44.7495H890.778V35.8095C890.778 34.1695 890.368 32.9195 889.548 32.0595C888.728 31.1995 887.558 30.7695 886.038 30.7695C884.338 30.7695 882.988 31.2795 881.988 32.2995C881.008 33.2995 880.518 34.6895 880.518 36.4695V44.7495H878.388V28.9695H880.428V31.8795C881.008 30.9195 881.808 30.1795 882.828 29.6595C883.868 29.1195 885.068 28.8495 886.428 28.8495Z" fill="black"/>
</svg>
