<svg width="551" height="165" viewBox="0 0 551 165" fill="none" xmlns="http://www.w3.org/2000/svg">
<path d="M369.505 85.7318C368.92 85.1449 368.922 84.1952 369.509 83.6105L437.519 15.8566C438.106 15.2719 439.056 15.2737 439.64 15.8606L507.394 83.8709C507.979 84.4578 507.977 85.4076 507.39 85.9923L439.38 153.746C438.793 154.331 437.843 154.329 437.258 153.742L369.505 85.7318Z" stroke="#414141"/>
<path d="M369.371 81.1397C368.786 80.5528 368.788 79.603 369.375 79.0184L437.385 11.2644C437.972 10.6798 438.922 10.6816 439.506 11.2684L507.26 79.2788C507.845 79.8657 507.843 80.8154 507.256 81.4001L439.246 149.154C438.659 149.739 437.709 149.737 437.125 149.15L369.371 81.1397Z" stroke="#414141"/>
<path d="M235.831 90.3656C235.246 89.7787 235.248 88.8289 235.835 88.2443L303.845 20.4903C304.432 19.9057 305.382 19.9074 305.966 20.4943L373.72 88.5047C374.305 89.0916 374.303 90.0413 373.716 90.626L305.706 158.38C305.119 158.965 304.169 158.963 303.585 158.376L235.831 90.3656Z" stroke="#414141"/>
<path d="M194.594 81.975C195.087 81.975 195.534 82.0884 195.934 82.315C196.334 82.535 196.647 82.8484 196.874 83.255C197.101 83.6617 197.214 84.125 197.214 84.645C197.214 85.1717 197.101 85.6384 196.874 86.045C196.647 86.4517 196.334 86.7684 195.934 86.995C195.541 87.215 195.094 87.325 194.594 87.325C194.167 87.325 193.781 87.2384 193.434 87.065C193.094 86.885 192.814 86.625 192.594 86.285V89.215H191.884V82.015H192.564V83.055C192.777 82.7084 193.057 82.4417 193.404 82.255C193.757 82.0684 194.154 81.975 194.594 81.975ZM194.544 86.695C194.911 86.695 195.244 86.6117 195.544 86.445C195.844 86.2717 196.077 86.0284 196.244 85.715C196.417 85.4017 196.504 85.045 196.504 84.645C196.504 84.245 196.417 83.8917 196.244 83.585C196.077 83.2717 195.844 83.0284 195.544 82.855C195.244 82.6817 194.911 82.595 194.544 82.595C194.171 82.595 193.834 82.6817 193.534 82.855C193.241 83.0284 193.007 83.2717 192.834 83.585C192.667 83.8917 192.584 84.245 192.584 84.645C192.584 85.045 192.667 85.4017 192.834 85.715C193.007 86.0284 193.241 86.2717 193.534 86.445C193.834 86.6117 194.171 86.695 194.544 86.695ZM199.341 83.045C199.508 82.6917 199.755 82.425 200.081 82.245C200.415 82.065 200.825 81.975 201.311 81.975V82.665L201.141 82.655C200.588 82.655 200.155 82.825 199.841 83.165C199.528 83.505 199.371 83.9817 199.371 84.595V87.275H198.661V82.015H199.341V83.045ZM204.698 87.325C204.191 87.325 203.735 87.2117 203.328 86.985C202.921 86.7517 202.601 86.4317 202.368 86.025C202.135 85.6184 202.018 85.1584 202.018 84.645C202.018 84.1317 202.135 83.6717 202.368 83.265C202.601 82.8584 202.921 82.5417 203.328 82.315C203.735 82.0884 204.191 81.975 204.698 81.975C205.205 81.975 205.661 82.0884 206.068 82.315C206.475 82.5417 206.791 82.8584 207.018 83.265C207.251 83.6717 207.368 84.1317 207.368 84.645C207.368 85.1584 207.251 85.6184 207.018 86.025C206.791 86.4317 206.475 86.7517 206.068 86.985C205.661 87.2117 205.205 87.325 204.698 87.325ZM204.698 86.695C205.071 86.695 205.405 86.6117 205.698 86.445C205.998 86.2717 206.231 86.0284 206.398 85.715C206.565 85.4017 206.648 85.045 206.648 84.645C206.648 84.245 206.565 83.8884 206.398 83.575C206.231 83.2617 205.998 83.0217 205.698 82.855C205.405 82.6817 205.071 82.595 204.698 82.595C204.325 82.595 203.988 82.6817 203.688 82.855C203.395 83.0217 203.161 83.2617 202.988 83.575C202.821 83.8884 202.738 84.245 202.738 84.645C202.738 85.045 202.821 85.4017 202.988 85.715C203.161 86.0284 203.395 86.2717 203.688 86.445C203.988 86.6117 204.325 86.695 204.698 86.695ZM211.528 81.975C212.021 81.975 212.468 82.0884 212.868 82.315C213.268 82.535 213.581 82.8484 213.808 83.255C214.034 83.6617 214.148 84.125 214.148 84.645C214.148 85.165 214.034 85.6284 213.808 86.035C213.581 86.4417 213.268 86.7584 212.868 86.985C212.468 87.2117 212.021 87.325 211.528 87.325C211.088 87.325 210.691 87.2317 210.338 87.045C209.991 86.8584 209.711 86.5884 209.498 86.235V87.275H208.818V79.855H209.528V83.015C209.748 82.675 210.028 82.4184 210.368 82.245C210.714 82.065 211.101 81.975 211.528 81.975ZM211.478 86.695C211.844 86.695 212.178 86.6117 212.478 86.445C212.778 86.2717 213.011 86.0284 213.178 85.715C213.351 85.4017 213.438 85.045 213.438 84.645C213.438 84.245 213.351 83.8884 213.178 83.575C213.011 83.2617 212.778 83.0217 212.478 82.855C212.178 82.6817 211.844 82.595 211.478 82.595C211.104 82.595 210.768 82.6817 210.468 82.855C210.174 83.0217 209.941 83.2617 209.768 83.575C209.601 83.8884 209.518 84.245 209.518 84.645C209.518 85.045 209.601 85.4017 209.768 85.715C209.941 86.0284 210.174 86.2717 210.468 86.445C210.768 86.6117 211.104 86.695 211.478 86.695ZM215.595 79.855H216.305V87.275H215.595V79.855ZM222.861 84.865H218.461C218.501 85.4117 218.711 85.855 219.091 86.195C219.471 86.5284 219.951 86.695 220.531 86.695C220.857 86.695 221.157 86.6384 221.431 86.525C221.704 86.405 221.941 86.2317 222.141 86.005L222.541 86.465C222.307 86.745 222.014 86.9584 221.661 87.105C221.314 87.2517 220.931 87.325 220.511 87.325C219.971 87.325 219.491 87.2117 219.071 86.985C218.657 86.7517 218.334 86.4317 218.101 86.025C217.867 85.6184 217.751 85.1584 217.751 84.645C217.751 84.1317 217.861 83.6717 218.081 83.265C218.307 82.8584 218.614 82.5417 219.001 82.315C219.394 82.0884 219.834 81.975 220.321 81.975C220.807 81.975 221.244 82.0884 221.631 82.315C222.017 82.5417 222.321 82.8584 222.541 83.265C222.761 83.665 222.871 84.125 222.871 84.645L222.861 84.865ZM220.321 82.585C219.814 82.585 219.387 82.7484 219.041 83.075C218.701 83.395 218.507 83.815 218.461 84.335H222.191C222.144 83.815 221.947 83.395 221.601 83.075C221.261 82.7484 220.834 82.585 220.321 82.585ZM230.876 81.975C231.536 81.975 232.052 82.165 232.426 82.545C232.806 82.925 232.996 83.485 232.996 84.225V87.275H232.286V84.295C232.286 83.7484 232.152 83.3317 231.886 83.045C231.626 82.7584 231.256 82.615 230.776 82.615C230.229 82.615 229.799 82.785 229.486 83.125C229.172 83.4584 229.016 83.9217 229.016 84.515V87.275H228.306V84.295C228.306 83.7484 228.172 83.3317 227.906 83.045C227.646 82.7584 227.272 82.615 226.786 82.615C226.246 82.615 225.816 82.785 225.496 83.125C225.182 83.4584 225.026 83.9217 225.026 84.515V87.275H224.316V82.015H224.996V82.975C225.182 82.655 225.442 82.4084 225.776 82.235C226.109 82.0617 226.492 81.975 226.926 81.975C227.366 81.975 227.746 82.0684 228.066 82.255C228.392 82.4417 228.636 82.7184 228.796 83.085C228.989 82.7384 229.266 82.4684 229.626 82.275C229.992 82.075 230.409 81.975 230.876 81.975Z" fill="black"/>
<path d="M39.0516 6.49866H41.9016C42.6416 6.49866 43.295 6.64866 43.8616 6.94866C44.4283 7.24199 44.8683 7.65532 45.1816 8.18866C45.495 8.71532 45.6516 9.31866 45.6516 9.99866C45.6516 10.6787 45.495 11.2853 45.1816 11.8187C44.8683 12.3453 44.4283 12.7587 43.8616 13.0587C43.295 13.352 42.6416 13.4987 41.9016 13.4987H39.0516V6.49866ZM41.8616 12.8587C42.475 12.8587 43.0116 12.7387 43.4716 12.4987C43.9316 12.252 44.2883 11.9153 44.5416 11.4887C44.795 11.0553 44.9216 10.5587 44.9216 9.99866C44.9216 9.43866 44.795 8.94532 44.5416 8.51866C44.2883 8.08532 43.9316 7.74866 43.4716 7.50866C43.0116 7.26199 42.475 7.13866 41.8616 7.13866H39.7916V12.8587H41.8616ZM47.1633 8.23866H47.8733V13.4987H47.1633V8.23866ZM47.5233 7.08866C47.3767 7.08866 47.2533 7.03866 47.1533 6.93866C47.0533 6.83866 47.0033 6.71866 47.0033 6.57866C47.0033 6.44532 47.0533 6.32866 47.1533 6.22866C47.2533 6.12866 47.3767 6.07866 47.5233 6.07866C47.67 6.07866 47.7933 6.12866 47.8933 6.22866C47.9933 6.32199 48.0433 6.43532 48.0433 6.56866C48.0433 6.71532 47.9933 6.83866 47.8933 6.93866C47.7933 7.03866 47.67 7.08866 47.5233 7.08866ZM51.2589 13.5487C50.8322 13.5487 50.4222 13.4887 50.0289 13.3687C49.6422 13.242 49.3389 13.0853 49.1189 12.8987L49.4389 12.3387C49.6589 12.512 49.9356 12.6553 50.2689 12.7687C50.6022 12.8753 50.9489 12.9287 51.3089 12.9287C51.7889 12.9287 52.1422 12.8553 52.3689 12.7087C52.6022 12.5553 52.7189 12.342 52.7189 12.0687C52.7189 11.8753 52.6556 11.7253 52.5289 11.6187C52.4022 11.5053 52.2422 11.422 52.0489 11.3687C51.8556 11.3087 51.5989 11.252 51.2789 11.1987C50.8522 11.1187 50.5089 11.0387 50.2489 10.9587C49.9889 10.872 49.7656 10.7287 49.5789 10.5287C49.3989 10.3287 49.3089 10.052 49.3089 9.69866C49.3089 9.25866 49.4922 8.89866 49.8589 8.61866C50.2256 8.33866 50.7356 8.19866 51.3889 8.19866C51.7289 8.19866 52.0689 8.24532 52.4089 8.33866C52.7489 8.42532 53.0289 8.54199 53.2489 8.68866L52.9389 9.25866C52.5056 8.95866 51.9889 8.80866 51.3889 8.80866C50.9356 8.80866 50.5922 8.88866 50.3589 9.04866C50.1322 9.20866 50.0189 9.41866 50.0189 9.67866C50.0189 9.87866 50.0822 10.0387 50.2089 10.1587C50.3422 10.2787 50.5056 10.3687 50.6989 10.4287C50.8922 10.482 51.1589 10.5387 51.4989 10.5987C51.9189 10.6787 52.2556 10.7587 52.5089 10.8387C52.7622 10.9187 52.9789 11.0553 53.1589 11.2487C53.3389 11.442 53.4289 11.7087 53.4289 12.0487C53.4289 12.5087 53.2356 12.8753 52.8489 13.1487C52.4689 13.4153 51.9389 13.5487 51.2589 13.5487ZM56.9215 13.5487C56.4015 13.5487 55.9348 13.4353 55.5215 13.2087C55.1148 12.982 54.7948 12.6653 54.5615 12.2587C54.3281 11.8453 54.2115 11.382 54.2115 10.8687C54.2115 10.3553 54.3281 9.89532 54.5615 9.48866C54.7948 9.08199 55.1148 8.76532 55.5215 8.53866C55.9348 8.31199 56.4015 8.19866 56.9215 8.19866C57.3748 8.19866 57.7781 8.28866 58.1315 8.46866C58.4915 8.64199 58.7748 8.89866 58.9815 9.23866L58.4515 9.59866C58.2781 9.33866 58.0581 9.14532 57.7915 9.01866C57.5248 8.88532 57.2348 8.81866 56.9215 8.81866C56.5415 8.81866 56.1981 8.90532 55.8915 9.07866C55.5915 9.24532 55.3548 9.48532 55.1815 9.79866C55.0148 10.112 54.9315 10.4687 54.9315 10.8687C54.9315 11.2753 55.0148 11.6353 55.1815 11.9487C55.3548 12.2553 55.5915 12.4953 55.8915 12.6687C56.1981 12.8353 56.5415 12.9187 56.9215 12.9187C57.2348 12.9187 57.5248 12.8553 57.7915 12.7287C58.0581 12.602 58.2781 12.4087 58.4515 12.1487L58.9815 12.5087C58.7748 12.8487 58.4915 13.1087 58.1315 13.2887C57.7715 13.462 57.3681 13.5487 56.9215 13.5487ZM62.4383 13.5487C61.9317 13.5487 61.475 13.4353 61.0683 13.2087C60.6617 12.9753 60.3417 12.6553 60.1083 12.2487C59.875 11.842 59.7583 11.382 59.7583 10.8687C59.7583 10.3553 59.875 9.89532 60.1083 9.48866C60.3417 9.08199 60.6617 8.76532 61.0683 8.53866C61.475 8.31199 61.9317 8.19866 62.4383 8.19866C62.945 8.19866 63.4017 8.31199 63.8083 8.53866C64.215 8.76532 64.5317 9.08199 64.7583 9.48866C64.9917 9.89532 65.1083 10.3553 65.1083 10.8687C65.1083 11.382 64.9917 11.842 64.7583 12.2487C64.5317 12.6553 64.215 12.9753 63.8083 13.2087C63.4017 13.4353 62.945 13.5487 62.4383 13.5487ZM62.4383 12.9187C62.8117 12.9187 63.145 12.8353 63.4383 12.6687C63.7383 12.4953 63.9717 12.252 64.1383 11.9387C64.305 11.6253 64.3883 11.2687 64.3883 10.8687C64.3883 10.4687 64.305 10.112 64.1383 9.79866C63.9717 9.48532 63.7383 9.24532 63.4383 9.07866C63.145 8.90532 62.8117 8.81866 62.4383 8.81866C62.065 8.81866 61.7283 8.90532 61.4283 9.07866C61.135 9.24532 60.9017 9.48532 60.7283 9.79866C60.5617 10.112 60.4783 10.4687 60.4783 10.8687C60.4783 11.2687 60.5617 11.6253 60.7283 11.9387C60.9017 12.252 61.135 12.4953 61.4283 12.6687C61.7283 12.8353 62.065 12.9187 62.4383 12.9187ZM70.8314 8.23866L68.4914 13.4987H67.7614L65.4314 8.23866H66.1714L68.1414 12.7187L70.1314 8.23866H70.8314ZM76.2648 11.0887H71.8648C71.9048 11.6353 72.1148 12.0787 72.4948 12.4187C72.8748 12.752 73.3548 12.9187 73.9348 12.9187C74.2615 12.9187 74.5615 12.862 74.8348 12.7487C75.1082 12.6287 75.3448 12.4553 75.5448 12.2287L75.9448 12.6887C75.7115 12.9687 75.4182 13.182 75.0648 13.3287C74.7182 13.4753 74.3348 13.5487 73.9148 13.5487C73.3748 13.5487 72.8948 13.4353 72.4748 13.2087C72.0615 12.9753 71.7382 12.6553 71.5048 12.2487C71.2715 11.842 71.1548 11.382 71.1548 10.8687C71.1548 10.3553 71.2648 9.89532 71.4848 9.48866C71.7115 9.08199 72.0182 8.76532 72.4048 8.53866C72.7982 8.31199 73.2382 8.19866 73.7248 8.19866C74.2115 8.19866 74.6482 8.31199 75.0348 8.53866C75.4215 8.76532 75.7248 9.08199 75.9448 9.48866C76.1648 9.88866 76.2748 10.3487 76.2748 10.8687L76.2648 11.0887ZM73.7248 8.80866C73.2182 8.80866 72.7915 8.97199 72.4448 9.29866C72.1048 9.61866 71.9115 10.0387 71.8648 10.5587H75.5948C75.5482 10.0387 75.3515 9.61866 75.0048 9.29866C74.6648 8.97199 74.2382 8.80866 73.7248 8.80866ZM78.4 9.26866C78.5666 8.91532 78.8133 8.64866 79.14 8.46866C79.4733 8.28866 79.8833 8.19866 80.37 8.19866V8.88866L80.2 8.87866C79.6466 8.87866 79.2133 9.04866 78.9 9.38866C78.5866 9.72866 78.43 10.2053 78.43 10.8187V13.4987H77.72V8.23866H78.4V9.26866ZM86.3001 8.23866L83.6701 14.1287C83.4568 14.622 83.2101 14.972 82.9301 15.1787C82.6501 15.3853 82.3135 15.4887 81.9201 15.4887C81.6668 15.4887 81.4301 15.4487 81.2101 15.3687C80.9901 15.2887 80.8001 15.1687 80.6401 15.0087L80.9701 14.4787C81.2368 14.7453 81.5568 14.8787 81.9301 14.8787C82.1701 14.8787 82.3735 14.812 82.5401 14.6787C82.7135 14.5453 82.8735 14.3187 83.0201 13.9987L83.2501 13.4887L80.9001 8.23866H81.6401L83.6201 12.7087L85.6001 8.23866H86.3001Z" fill="black"/>
<path d="M40.9816 60.5588C40.4616 60.5588 39.9616 60.4754 39.4816 60.3088C39.0083 60.1421 38.6416 59.9221 38.3816 59.6488L38.6716 59.0788C38.925 59.3321 39.2616 59.5388 39.6816 59.6988C40.1016 59.8521 40.535 59.9288 40.9816 59.9288C41.6083 59.9288 42.0783 59.8154 42.3916 59.5888C42.705 59.3554 42.8616 59.0554 42.8616 58.6888C42.8616 58.4088 42.775 58.1854 42.6016 58.0188C42.435 57.8521 42.2283 57.7254 41.9816 57.6388C41.735 57.5454 41.3916 57.4454 40.9516 57.3388C40.425 57.2054 40.005 57.0788 39.6916 56.9588C39.3783 56.8321 39.1083 56.6421 38.8816 56.3888C38.6616 56.1354 38.5516 55.7921 38.5516 55.3588C38.5516 55.0054 38.645 54.6854 38.8316 54.3988C39.0183 54.1054 39.305 53.8721 39.6916 53.6988C40.0783 53.5254 40.5583 53.4388 41.1316 53.4388C41.5316 53.4388 41.9216 53.4954 42.3016 53.6088C42.6883 53.7154 43.0216 53.8654 43.3016 54.0588L43.0516 54.6488C42.7583 54.4554 42.445 54.3121 42.1116 54.2188C41.7783 54.1188 41.4516 54.0688 41.1316 54.0688C40.5183 54.0688 40.055 54.1888 39.7416 54.4288C39.435 54.6621 39.2816 54.9654 39.2816 55.3388C39.2816 55.6188 39.365 55.8454 39.5316 56.0188C39.705 56.1854 39.9183 56.3154 40.1716 56.4088C40.4316 56.4954 40.7783 56.5921 41.2116 56.6988C41.725 56.8254 42.1383 56.9521 42.4516 57.0788C42.7716 57.1988 43.0416 57.3854 43.2616 57.6388C43.4816 57.8854 43.5916 58.2221 43.5916 58.6488C43.5916 59.0021 43.495 59.3254 43.3016 59.6188C43.115 59.9054 42.825 60.1354 42.4316 60.3088C42.0383 60.4754 41.555 60.5588 40.9816 60.5588ZM47.824 60.1788C47.6906 60.2988 47.524 60.3921 47.324 60.4588C47.1306 60.5188 46.9273 60.5488 46.714 60.5488C46.2206 60.5488 45.8406 60.4154 45.574 60.1488C45.3073 59.8821 45.174 59.5054 45.174 59.0188V55.8388H44.234V55.2388H45.174V54.0888H45.884V55.2388H47.484V55.8388H45.884V58.9788C45.884 59.2921 45.9606 59.5321 46.114 59.6988C46.274 59.8588 46.5006 59.9388 46.794 59.9388C46.9406 59.9388 47.0806 59.9154 47.214 59.8688C47.354 59.8221 47.474 59.7554 47.574 59.6688L47.824 60.1788ZM49.7965 56.2688C49.9631 55.9154 50.2098 55.6488 50.5365 55.4688C50.8698 55.2888 51.2798 55.1988 51.7665 55.1988V55.8888L51.5965 55.8788C51.0431 55.8788 50.6098 56.0488 50.2965 56.3888C49.9831 56.7288 49.8265 57.2054 49.8265 57.8188V60.4988H49.1165V55.2388H49.7965V56.2688ZM54.8822 55.1988C55.5689 55.1988 56.0956 55.3721 56.4622 55.7188C56.8289 56.0588 57.0122 56.5654 57.0122 57.2388V60.4988H56.3322V59.6788C56.1722 59.9521 55.9356 60.1654 55.6222 60.3188C55.3156 60.4721 54.9489 60.5488 54.5222 60.5488C53.9356 60.5488 53.4689 60.4088 53.1222 60.1288C52.7756 59.8488 52.6022 59.4788 52.6022 59.0188C52.6022 58.5721 52.7622 58.2121 53.0822 57.9388C53.4089 57.6654 53.9256 57.5288 54.6322 57.5288H56.3022V57.2088C56.3022 56.7554 56.1756 56.4121 55.9222 56.1788C55.6689 55.9388 55.2989 55.8188 54.8122 55.8188C54.4789 55.8188 54.1589 55.8754 53.8522 55.9888C53.5456 56.0954 53.2822 56.2454 53.0622 56.4388L52.7422 55.9088C53.0089 55.6821 53.3289 55.5088 53.7022 55.3888C54.0756 55.2621 54.4689 55.1988 54.8822 55.1988ZM54.6322 59.9888C55.0322 59.9888 55.3756 59.8988 55.6622 59.7188C55.9489 59.5321 56.1622 59.2654 56.3022 58.9188V58.0588H54.6522C53.7522 58.0588 53.3022 58.3721 53.3022 58.9988C53.3022 59.3054 53.4189 59.5488 53.6522 59.7288C53.8856 59.9021 54.2122 59.9888 54.6322 59.9888ZM61.7107 60.1788C61.5774 60.2988 61.4107 60.3921 61.2107 60.4588C61.0174 60.5188 60.814 60.5488 60.6007 60.5488C60.1074 60.5488 59.7274 60.4154 59.4607 60.1488C59.194 59.8821 59.0607 59.5054 59.0607 59.0188V55.8388H58.1207V55.2388H59.0607V54.0888H59.7707V55.2388H61.3707V55.8388H59.7707V58.9788C59.7707 59.2921 59.8474 59.5321 60.0007 59.6988C60.1607 59.8588 60.3874 59.9388 60.6807 59.9388C60.8274 59.9388 60.9674 59.9154 61.1007 59.8688C61.2407 59.8221 61.3607 59.7554 61.4607 59.6688L61.7107 60.1788ZM67.3976 58.0888H62.9976C63.0376 58.6354 63.2476 59.0788 63.6276 59.4188C64.0076 59.7521 64.4876 59.9188 65.0676 59.9188C65.3943 59.9188 65.6943 59.8621 65.9676 59.7488C66.241 59.6288 66.4776 59.4554 66.6776 59.2288L67.0776 59.6888C66.8443 59.9688 66.551 60.1821 66.1976 60.3288C65.851 60.4754 65.4676 60.5488 65.0476 60.5488C64.5076 60.5488 64.0276 60.4354 63.6076 60.2088C63.1943 59.9754 62.871 59.6554 62.6376 59.2488C62.4043 58.8421 62.2876 58.3821 62.2876 57.8688C62.2876 57.3554 62.3976 56.8954 62.6176 56.4888C62.8443 56.0821 63.151 55.7654 63.5376 55.5388C63.931 55.3121 64.371 55.1988 64.8576 55.1988C65.3443 55.1988 65.781 55.3121 66.1676 55.5388C66.5543 55.7654 66.8576 56.0821 67.0776 56.4888C67.2976 56.8888 67.4076 57.3488 67.4076 57.8688L67.3976 58.0888ZM64.8576 55.8088C64.351 55.8088 63.9243 55.9721 63.5776 56.2988C63.2376 56.6188 63.0443 57.0388 62.9976 57.5588H66.7276C66.681 57.0388 66.4843 56.6188 66.1376 56.2988C65.7976 55.9721 65.371 55.8088 64.8576 55.8088ZM73.7228 55.2388V59.8588C73.7228 60.7521 73.5028 61.4121 73.0628 61.8388C72.6295 62.2721 71.9728 62.4888 71.0928 62.4888C70.6061 62.4888 70.1428 62.4154 69.7028 62.2688C69.2695 62.1288 68.9161 61.9321 68.6428 61.6788L69.0028 61.1388C69.2561 61.3654 69.5628 61.5421 69.9228 61.6688C70.2895 61.7954 70.6728 61.8588 71.0728 61.8588C71.7395 61.8588 72.2295 61.7021 72.5428 61.3888C72.8561 61.0821 73.0128 60.6021 73.0128 59.9488V59.2788C72.7928 59.6121 72.5028 59.8654 72.1428 60.0388C71.7895 60.2121 71.3961 60.2988 70.9628 60.2988C70.4695 60.2988 70.0195 60.1921 69.6128 59.9788C69.2128 59.7588 68.8961 59.4554 68.6628 59.0688C68.4361 58.6754 68.3228 58.2321 68.3228 57.7388C68.3228 57.2454 68.4361 56.8054 68.6628 56.4188C68.8961 56.0321 69.2128 55.7321 69.6128 55.5188C70.0128 55.3054 70.4628 55.1988 70.9628 55.1988C71.4095 55.1988 71.8128 55.2888 72.1728 55.4688C72.5328 55.6488 72.8228 55.9088 73.0428 56.2488V55.2388H73.7228ZM71.0328 59.6688C71.4128 59.6688 71.7561 59.5888 72.0628 59.4288C72.3695 59.2621 72.6061 59.0321 72.7728 58.7388C72.9461 58.4454 73.0328 58.1121 73.0328 57.7388C73.0328 57.3654 72.9461 57.0354 72.7728 56.7488C72.6061 56.4554 72.3695 56.2288 72.0628 56.0688C71.7628 55.9021 71.4195 55.8188 71.0328 55.8188C70.6528 55.8188 70.3095 55.8988 70.0028 56.0588C69.7028 56.2188 69.4661 56.4454 69.2928 56.7388C69.1261 57.0321 69.0428 57.3654 69.0428 57.7388C69.0428 58.1121 69.1261 58.4454 69.2928 58.7388C69.4661 59.0321 69.7028 59.2621 70.0028 59.4288C70.3095 59.5888 70.6528 59.6688 71.0328 59.6688ZM80.1283 55.2388L77.4983 61.1288C77.2849 61.6221 77.0383 61.9721 76.7583 62.1788C76.4783 62.3854 76.1416 62.4888 75.7483 62.4888C75.4949 62.4888 75.2583 62.4488 75.0383 62.3688C74.8183 62.2888 74.6283 62.1688 74.4683 62.0088L74.7983 61.4788C75.0649 61.7454 75.3849 61.8788 75.7583 61.8788C75.9983 61.8788 76.2016 61.8121 76.3683 61.6788C76.5416 61.5454 76.7016 61.3188 76.8483 60.9988L77.0783 60.4888L74.7283 55.2388H75.4683L77.4483 59.7088L79.4283 55.2388H80.1283Z" fill="black"/>
<path d="M39.1439 143.486H41.9939C42.7339 143.486 43.3872 143.636 43.9539 143.936C44.5206 144.229 44.9606 144.642 45.2739 145.176C45.5872 145.702 45.7439 146.306 45.7439 146.986C45.7439 147.666 45.5872 148.272 45.2739 148.806C44.9606 149.332 44.5206 149.746 43.9539 150.046C43.3872 150.339 42.7339 150.486 41.9939 150.486H39.1439V143.486ZM41.9539 149.846C42.5672 149.846 43.1039 149.726 43.5639 149.486C44.0239 149.239 44.3806 148.902 44.6339 148.476C44.8872 148.042 45.0139 147.546 45.0139 146.986C45.0139 146.426 44.8872 145.932 44.6339 145.506C44.3806 145.072 44.0239 144.736 43.5639 144.496C43.1039 144.249 42.5672 144.126 41.9539 144.126H39.8839V149.846H41.9539ZM51.8356 148.076H47.4356C47.4756 148.622 47.6856 149.066 48.0656 149.406C48.4456 149.739 48.9256 149.906 49.5056 149.906C49.8323 149.906 50.1323 149.849 50.4056 149.736C50.679 149.616 50.9156 149.442 51.1156 149.216L51.5156 149.676C51.2823 149.956 50.989 150.169 50.6356 150.316C50.289 150.462 49.9056 150.536 49.4856 150.536C48.9456 150.536 48.4656 150.422 48.0456 150.196C47.6323 149.962 47.309 149.642 47.0756 149.236C46.8423 148.829 46.7256 148.369 46.7256 147.856C46.7256 147.342 46.8356 146.882 47.0556 146.476C47.2823 146.069 47.589 145.752 47.9756 145.526C48.369 145.299 48.809 145.186 49.2956 145.186C49.7823 145.186 50.219 145.299 50.6056 145.526C50.9923 145.752 51.2956 146.069 51.5156 146.476C51.7356 146.876 51.8456 147.336 51.8456 147.856L51.8356 148.076ZM49.2956 145.796C48.789 145.796 48.3623 145.959 48.0156 146.286C47.6756 146.606 47.4823 147.026 47.4356 147.546H51.1656C51.119 147.026 50.9223 146.606 50.5756 146.286C50.2356 145.959 49.809 145.796 49.2956 145.796ZM57.6131 145.226L55.2731 150.486H54.5431L52.2131 145.226H52.9531L54.9231 149.706L56.9131 145.226H57.6131ZM63.0466 148.076H58.6466C58.6866 148.622 58.8966 149.066 59.2766 149.406C59.6566 149.739 60.1366 149.906 60.7166 149.906C61.0432 149.906 61.3432 149.849 61.6166 149.736C61.8899 149.616 62.1266 149.442 62.3266 149.216L62.7266 149.676C62.4932 149.956 62.1999 150.169 61.8466 150.316C61.4999 150.462 61.1166 150.536 60.6966 150.536C60.1566 150.536 59.6766 150.422 59.2566 150.196C58.8432 149.962 58.5199 149.642 58.2866 149.236C58.0532 148.829 57.9366 148.369 57.9366 147.856C57.9366 147.342 58.0466 146.882 58.2666 146.476C58.4932 146.069 58.7999 145.752 59.1866 145.526C59.5799 145.299 60.0199 145.186 60.5066 145.186C60.9932 145.186 61.4299 145.299 61.8166 145.526C62.2032 145.752 62.5066 146.069 62.7266 146.476C62.9466 146.876 63.0566 147.336 63.0566 147.856L63.0466 148.076ZM60.5066 145.796C59.9999 145.796 59.5732 145.959 59.2266 146.286C58.8866 146.606 58.6932 147.026 58.6466 147.546H62.3766C62.3299 147.026 62.1332 146.606 61.7866 146.286C61.4466 145.959 61.0199 145.796 60.5066 145.796ZM64.5017 143.066H65.2117V150.486H64.5017V143.066ZM69.3373 150.536C68.8306 150.536 68.3739 150.422 67.9673 150.196C67.5606 149.962 67.2406 149.642 67.0073 149.236C66.7739 148.829 66.6573 148.369 66.6573 147.856C66.6573 147.342 66.7739 146.882 67.0073 146.476C67.2406 146.069 67.5606 145.752 67.9673 145.526C68.3739 145.299 68.8306 145.186 69.3373 145.186C69.8439 145.186 70.3006 145.299 70.7073 145.526C71.1139 145.752 71.4306 146.069 71.6573 146.476C71.8906 146.882 72.0073 147.342 72.0073 147.856C72.0073 148.369 71.8906 148.829 71.6573 149.236C71.4306 149.642 71.1139 149.962 70.7073 150.196C70.3006 150.422 69.8439 150.536 69.3373 150.536ZM69.3373 149.906C69.7106 149.906 70.0439 149.822 70.3373 149.656C70.6373 149.482 70.8706 149.239 71.0373 148.926C71.2039 148.612 71.2873 148.256 71.2873 147.856C71.2873 147.456 71.2039 147.099 71.0373 146.786C70.8706 146.472 70.6373 146.232 70.3373 146.066C70.0439 145.892 69.7106 145.806 69.3373 145.806C68.9639 145.806 68.6273 145.892 68.3273 146.066C68.0339 146.232 67.8006 146.472 67.6273 146.786C67.4606 147.099 67.3773 147.456 67.3773 147.856C67.3773 148.256 67.4606 148.612 67.6273 148.926C67.8006 149.239 68.0339 149.482 68.3273 149.656C68.6273 149.822 68.9639 149.906 69.3373 149.906ZM76.1668 145.186C76.6601 145.186 77.1068 145.299 77.5068 145.526C77.9068 145.746 78.2201 146.059 78.4468 146.466C78.6735 146.872 78.7868 147.336 78.7868 147.856C78.7868 148.382 78.6735 148.849 78.4468 149.256C78.2201 149.662 77.9068 149.979 77.5068 150.206C77.1135 150.426 76.6668 150.536 76.1668 150.536C75.7401 150.536 75.3535 150.449 75.0068 150.276C74.6668 150.096 74.3868 149.836 74.1668 149.496V152.426H73.4568V145.226H74.1368V146.266C74.3501 145.919 74.6301 145.652 74.9768 145.466C75.3301 145.279 75.7268 145.186 76.1668 145.186ZM76.1168 149.906C76.4835 149.906 76.8168 149.822 77.1168 149.656C77.4168 149.482 77.6501 149.239 77.8168 148.926C77.9901 148.612 78.0768 148.256 78.0768 147.856C78.0768 147.456 77.9901 147.102 77.8168 146.796C77.6501 146.482 77.4168 146.239 77.1168 146.066C76.8168 145.892 76.4835 145.806 76.1168 145.806C75.7435 145.806 75.4068 145.892 75.1068 146.066C74.8135 146.239 74.5801 146.482 74.4068 146.796C74.2401 147.102 74.1568 147.456 74.1568 147.856C74.1568 148.256 74.2401 148.612 74.4068 148.926C74.5801 149.239 74.8135 149.482 75.1068 149.656C75.4068 149.822 75.7435 149.906 76.1168 149.906ZM86.7941 145.186C87.4541 145.186 87.9708 145.376 88.3441 145.756C88.7241 146.136 88.9141 146.696 88.9141 147.436V150.486H88.2041V147.506C88.2041 146.959 88.0708 146.542 87.8041 146.256C87.5441 145.969 87.1741 145.826 86.6941 145.826C86.1475 145.826 85.7175 145.996 85.4041 146.336C85.0908 146.669 84.9341 147.132 84.9341 147.726V150.486H84.2241V147.506C84.2241 146.959 84.0908 146.542 83.8241 146.256C83.5641 145.969 83.1908 145.826 82.7041 145.826C82.1641 145.826 81.7341 145.996 81.4141 146.336C81.1008 146.669 80.9441 147.132 80.9441 147.726V150.486H80.2341V145.226H80.9141V146.186C81.1008 145.866 81.3608 145.619 81.6941 145.446C82.0275 145.272 82.4108 145.186 82.8441 145.186C83.2841 145.186 83.6641 145.279 83.9841 145.466C84.3108 145.652 84.5541 145.929 84.7141 146.296C84.9075 145.949 85.1841 145.679 85.5441 145.486C85.9108 145.286 86.3275 145.186 86.7941 145.186ZM95.4391 148.076H91.0391C91.0791 148.622 91.2891 149.066 91.6691 149.406C92.0491 149.739 92.5291 149.906 93.1091 149.906C93.4358 149.906 93.7358 149.849 94.0091 149.736C94.2825 149.616 94.5191 149.442 94.7191 149.216L95.1191 149.676C94.8858 149.956 94.5925 150.169 94.2391 150.316C93.8925 150.462 93.5091 150.536 93.0891 150.536C92.5491 150.536 92.0691 150.422 91.6491 150.196C91.2358 149.962 90.9125 149.642 90.6791 149.236C90.4458 148.829 90.3291 148.369 90.3291 147.856C90.3291 147.342 90.4391 146.882 90.6591 146.476C90.8858 146.069 91.1925 145.752 91.5791 145.526C91.9725 145.299 92.4125 145.186 92.8991 145.186C93.3858 145.186 93.8225 145.299 94.2091 145.526C94.5958 145.752 94.8991 146.069 95.1191 146.476C95.3391 146.876 95.4491 147.336 95.4491 147.856L95.4391 148.076ZM92.8991 145.796C92.3925 145.796 91.9658 145.959 91.6191 146.286C91.2791 146.606 91.0858 147.026 91.0391 147.546H94.7691C94.7225 147.026 94.5258 146.606 94.1791 146.286C93.8391 145.959 93.4125 145.796 92.8991 145.796ZM99.5743 145.186C100.234 145.186 100.758 145.379 101.144 145.766C101.538 146.146 101.734 146.702 101.734 147.436V150.486H101.024V147.506C101.024 146.959 100.888 146.542 100.614 146.256C100.341 145.969 99.951 145.826 99.4443 145.826C98.8776 145.826 98.4276 145.996 98.0943 146.336C97.7676 146.669 97.6043 147.132 97.6043 147.726V150.486H96.8943V145.226H97.5743V146.196C97.7676 145.876 98.0343 145.629 98.3743 145.456C98.721 145.276 99.121 145.186 99.5743 145.186ZM106.432 150.166C106.299 150.286 106.132 150.379 105.932 150.446C105.739 150.506 105.535 150.536 105.322 150.536C104.829 150.536 104.449 150.402 104.182 150.136C103.915 149.869 103.782 149.492 103.782 149.006V145.826H102.842V145.226H103.782V144.076H104.492V145.226H106.092V145.826H104.492V148.966C104.492 149.279 104.569 149.519 104.722 149.686C104.882 149.846 105.109 149.926 105.402 149.926C105.549 149.926 105.689 149.902 105.822 149.856C105.962 149.809 106.082 149.742 106.182 149.656L106.432 150.166ZM44.1539 162.596L43.1839 161.596C42.5906 162.229 41.8106 162.546 40.8439 162.546C40.3906 162.546 39.9839 162.472 39.6239 162.326C39.2706 162.172 38.9939 161.962 38.7939 161.696C38.5939 161.422 38.4939 161.112 38.4939 160.766C38.4939 160.346 38.6272 159.969 38.8939 159.636C39.1606 159.302 39.6139 158.952 40.2539 158.586C39.9206 158.239 39.6906 157.946 39.5639 157.706C39.4372 157.459 39.3739 157.199 39.3739 156.926C39.3739 156.479 39.5339 156.119 39.8539 155.846C40.1739 155.572 40.6039 155.436 41.1439 155.436C41.6439 155.436 42.0406 155.559 42.3339 155.806C42.6272 156.052 42.7739 156.392 42.7739 156.826C42.7739 157.172 42.6572 157.486 42.4239 157.766C42.1906 158.039 41.7872 158.342 41.2139 158.676L43.1339 160.656C43.3472 160.276 43.5039 159.826 43.6039 159.306L44.1839 159.486C44.0572 160.112 43.8506 160.649 43.5639 161.096L44.5639 162.126L44.1539 162.596ZM41.1439 155.966C40.7972 155.966 40.5239 156.052 40.3239 156.226C40.1306 156.399 40.0339 156.629 40.0339 156.916C40.0339 157.122 40.0872 157.319 40.1939 157.506C40.3006 157.692 40.5106 157.946 40.8239 158.266C41.3306 157.972 41.6806 157.722 41.8739 157.516C42.0672 157.309 42.1639 157.082 42.1639 156.836C42.1639 156.569 42.0739 156.359 41.8939 156.206C41.7139 156.046 41.4639 155.966 41.1439 155.966ZM40.8839 161.956C41.6572 161.956 42.2839 161.692 42.7639 161.166L40.6539 158.996C40.1006 159.309 39.7172 159.592 39.5039 159.846C39.2972 160.099 39.1939 160.382 39.1939 160.696C39.1939 161.076 39.3472 161.382 39.6539 161.616C39.9672 161.842 40.3772 161.956 40.8839 161.956ZM48.4505 155.486H49.1905V161.846H53.1105V162.486H48.4505V155.486ZM56.0488 157.186C56.7354 157.186 57.2621 157.359 57.6288 157.706C57.9954 158.046 58.1788 158.552 58.1788 159.226V162.486H57.4988V161.666C57.3388 161.939 57.1021 162.152 56.7888 162.306C56.4821 162.459 56.1154 162.536 55.6888 162.536C55.1021 162.536 54.6354 162.396 54.2888 162.116C53.9421 161.836 53.7688 161.466 53.7688 161.006C53.7688 160.559 53.9288 160.199 54.2488 159.926C54.5754 159.652 55.0921 159.516 55.7988 159.516H57.4688V159.196C57.4688 158.742 57.3421 158.399 57.0888 158.166C56.8354 157.926 56.4654 157.806 55.9788 157.806C55.6454 157.806 55.3254 157.862 55.0188 157.976C54.7121 158.082 54.4488 158.232 54.2288 158.426L53.9088 157.896C54.1754 157.669 54.4954 157.496 54.8688 157.376C55.2421 157.249 55.6354 157.186 56.0488 157.186ZM55.7988 161.976C56.1988 161.976 56.5421 161.886 56.8288 161.706C57.1154 161.519 57.3288 161.252 57.4688 160.906V160.046H55.8188C54.9188 160.046 54.4688 160.359 54.4688 160.986C54.4688 161.292 54.5854 161.536 54.8188 161.716C55.0521 161.889 55.3788 161.976 55.7988 161.976ZM64.8472 157.226V162.486H64.1672V161.526C63.9805 161.846 63.7239 162.096 63.3972 162.276C63.0705 162.449 62.6972 162.536 62.2772 162.536C61.5905 162.536 61.0472 162.346 60.6472 161.966C60.2539 161.579 60.0572 161.016 60.0572 160.276V157.226H60.7672V160.206C60.7672 160.759 60.9039 161.179 61.1772 161.466C61.4505 161.752 61.8405 161.896 62.3472 161.896C62.9005 161.896 63.3372 161.729 63.6572 161.396C63.9772 161.056 64.1372 160.586 64.1372 159.986V157.226H64.8472ZM69.5157 157.186C70.1757 157.186 70.699 157.379 71.0857 157.766C71.479 158.146 71.6757 158.702 71.6757 159.436V162.486H70.9657V159.506C70.9657 158.959 70.829 158.542 70.5557 158.256C70.2824 157.969 69.8924 157.826 69.3857 157.826C68.819 157.826 68.369 157.996 68.0357 158.336C67.709 158.669 67.5457 159.132 67.5457 159.726V162.486H66.8357V157.226H67.5157V158.196C67.709 157.876 67.9757 157.629 68.3157 157.456C68.6624 157.276 69.0624 157.186 69.5157 157.186ZM75.8028 162.536C75.2828 162.536 74.8161 162.422 74.4028 162.196C73.9961 161.969 73.6761 161.652 73.4428 161.246C73.2095 160.832 73.0928 160.369 73.0928 159.856C73.0928 159.342 73.2095 158.882 73.4428 158.476C73.6761 158.069 73.9961 157.752 74.4028 157.526C74.8161 157.299 75.2828 157.186 75.8028 157.186C76.2561 157.186 76.6595 157.276 77.0128 157.456C77.3728 157.629 77.6561 157.886 77.8628 158.226L77.3328 158.586C77.1595 158.326 76.9395 158.132 76.6728 158.006C76.4061 157.872 76.1161 157.806 75.8028 157.806C75.4228 157.806 75.0795 157.892 74.7728 158.066C74.4728 158.232 74.2361 158.472 74.0628 158.786C73.8961 159.099 73.8128 159.456 73.8128 159.856C73.8128 160.262 73.8961 160.622 74.0628 160.936C74.2361 161.242 74.4728 161.482 74.7728 161.656C75.0795 161.822 75.4228 161.906 75.8028 161.906C76.1161 161.906 76.4061 161.842 76.6728 161.716C76.9395 161.589 77.1595 161.396 77.3328 161.136L77.8628 161.496C77.6561 161.836 77.3728 162.096 77.0128 162.276C76.6528 162.449 76.2495 162.536 75.8028 162.536ZM81.8595 157.186C82.5195 157.186 83.0428 157.379 83.4295 157.766C83.8228 158.146 84.0195 158.702 84.0195 159.436V162.486H83.3095V159.506C83.3095 158.959 83.1728 158.542 82.8995 158.256C82.6261 157.969 82.2361 157.826 81.7295 157.826C81.1628 157.826 80.7128 157.996 80.3795 158.336C80.0528 158.669 79.8895 159.132 79.8895 159.726V162.486H79.1795V155.066H79.8895V158.146C80.0828 157.839 80.3495 157.602 80.6895 157.436C81.0295 157.269 81.4195 157.186 81.8595 157.186Z" fill="black"/>
<path d="M38.3705 96.4854H39.1105V103.485H38.3705V96.4854ZM43.918 98.1854C44.578 98.1854 45.1014 98.3787 45.488 98.7654C45.8814 99.1454 46.078 99.7021 46.078 100.435V103.485H45.368V100.505C45.368 99.9587 45.2314 99.5421 44.958 99.2554C44.6847 98.9687 44.2947 98.8254 43.788 98.8254C43.2214 98.8254 42.7714 98.9954 42.438 99.3354C42.1114 99.6687 41.948 100.132 41.948 100.725V103.485H41.238V98.2254H41.918V99.1954C42.1114 98.8754 42.378 98.6287 42.718 98.4554C43.0647 98.2754 43.4647 98.1854 43.918 98.1854ZM49.7456 96.6154C49.439 96.6154 49.2056 96.6987 49.0456 96.8654C48.8923 97.0321 48.8156 97.2787 48.8156 97.6054V98.2254H50.4356V98.8254H48.8356V103.485H48.1256V98.8254H47.1856V98.2254H48.1256V97.5754C48.1256 97.0954 48.2623 96.7154 48.5356 96.4354C48.8156 96.1554 49.209 96.0154 49.7156 96.0154C49.9156 96.0154 50.109 96.0454 50.2956 96.1054C50.4823 96.1587 50.639 96.2387 50.7656 96.3454L50.5256 96.8754C50.319 96.7021 50.059 96.6154 49.7456 96.6154ZM53.4564 103.535C52.9497 103.535 52.4931 103.422 52.0864 103.195C51.6797 102.962 51.3597 102.642 51.1264 102.235C50.8931 101.829 50.7764 101.369 50.7764 100.855C50.7764 100.342 50.8931 99.8821 51.1264 99.4754C51.3597 99.0687 51.6797 98.7521 52.0864 98.5254C52.4931 98.2987 52.9497 98.1854 53.4564 98.1854C53.9631 98.1854 54.4197 98.2987 54.8264 98.5254C55.2331 98.7521 55.5497 99.0687 55.7764 99.4754C56.0097 99.8821 56.1264 100.342 56.1264 100.855C56.1264 101.369 56.0097 101.829 55.7764 102.235C55.5497 102.642 55.2331 102.962 54.8264 103.195C54.4197 103.422 53.9631 103.535 53.4564 103.535ZM53.4564 102.905C53.8297 102.905 54.1631 102.822 54.4564 102.655C54.7564 102.482 54.9897 102.239 55.1564 101.925C55.3231 101.612 55.4064 101.255 55.4064 100.855C55.4064 100.455 55.3231 100.099 55.1564 99.7854C54.9897 99.4721 54.7564 99.2321 54.4564 99.0654C54.1631 98.8921 53.8297 98.8054 53.4564 98.8054C53.0831 98.8054 52.7464 98.8921 52.4464 99.0654C52.1531 99.2321 51.9197 99.4721 51.7464 99.7854C51.5797 100.099 51.4964 100.455 51.4964 100.855C51.4964 101.255 51.5797 101.612 51.7464 101.925C51.9197 102.239 52.1531 102.482 52.4464 102.655C52.7464 102.822 53.0831 102.905 53.4564 102.905ZM58.2559 99.2554C58.4226 98.9021 58.6693 98.6354 58.9959 98.4554C59.3293 98.2754 59.7393 98.1854 60.2259 98.1854V98.8754L60.0559 98.8654C59.5026 98.8654 59.0693 99.0354 58.7559 99.3754C58.4426 99.7154 58.2859 100.192 58.2859 100.805V103.485H57.5759V98.2254H58.2559V99.2554ZM68.0715 98.1854C68.7315 98.1854 69.2482 98.3754 69.6215 98.7554C70.0015 99.1354 70.1915 99.6954 70.1915 100.435V103.485H69.4815V100.505C69.4815 99.9587 69.3482 99.5421 69.0815 99.2554C68.8215 98.9687 68.4515 98.8254 67.9715 98.8254C67.4248 98.8254 66.9948 98.9954 66.6815 99.3354C66.3682 99.6687 66.2115 100.132 66.2115 100.725V103.485H65.5015V100.505C65.5015 99.9587 65.3682 99.5421 65.1015 99.2554C64.8415 98.9687 64.4682 98.8254 63.9815 98.8254C63.4415 98.8254 63.0115 98.9954 62.6915 99.3354C62.3782 99.6687 62.2215 100.132 62.2215 100.725V103.485H61.5115V98.2254H62.1915V99.1854C62.3782 98.8654 62.6382 98.6187 62.9715 98.4454C63.3048 98.2721 63.6882 98.1854 64.1215 98.1854C64.5615 98.1854 64.9415 98.2787 65.2615 98.4654C65.5882 98.6521 65.8315 98.9287 65.9915 99.2954C66.1848 98.9487 66.4615 98.6787 66.8215 98.4854C67.1882 98.2854 67.6048 98.1854 68.0715 98.1854ZM73.957 98.1854C74.6436 98.1854 75.1703 98.3587 75.537 98.7054C75.9036 99.0454 76.087 99.5521 76.087 100.225V103.485H75.407V102.665C75.247 102.939 75.0103 103.152 74.697 103.305C74.3903 103.459 74.0236 103.535 73.597 103.535C73.0103 103.535 72.5436 103.395 72.197 103.115C71.8503 102.835 71.677 102.465 71.677 102.005C71.677 101.559 71.837 101.199 72.157 100.925C72.4836 100.652 73.0003 100.515 73.707 100.515H75.377V100.195C75.377 99.7421 75.2503 99.3987 74.997 99.1654C74.7436 98.9254 74.3736 98.8054 73.887 98.8054C73.5536 98.8054 73.2336 98.8621 72.927 98.9754C72.6203 99.0821 72.357 99.2321 72.137 99.4254L71.817 98.8954C72.0836 98.6687 72.4036 98.4954 72.777 98.3754C73.1503 98.2487 73.5436 98.1854 73.957 98.1854ZM73.707 102.975C74.107 102.975 74.4503 102.885 74.737 102.705C75.0236 102.519 75.237 102.252 75.377 101.905V101.045H73.727C72.827 101.045 72.377 101.359 72.377 101.985C72.377 102.292 72.4936 102.535 72.727 102.715C72.9603 102.889 73.287 102.975 73.707 102.975ZM80.7854 103.165C80.6521 103.285 80.4854 103.379 80.2854 103.445C80.0921 103.505 79.8887 103.535 79.6754 103.535C79.1821 103.535 78.8021 103.402 78.5354 103.135C78.2687 102.869 78.1354 102.492 78.1354 102.005V98.8254H77.1954V98.2254H78.1354V97.0754H78.8454V98.2254H80.4454V98.8254H78.8454V101.965C78.8454 102.279 78.9221 102.519 79.0754 102.685C79.2354 102.845 79.4621 102.925 79.7554 102.925C79.9021 102.925 80.0421 102.902 80.1754 102.855C80.3154 102.809 80.4354 102.742 80.5354 102.655L80.7854 103.165ZM82.0779 98.2254H82.7879V103.485H82.0779V98.2254ZM82.4379 97.0754C82.2912 97.0754 82.1679 97.0254 82.0679 96.9254C81.9679 96.8254 81.9179 96.7054 81.9179 96.5654C81.9179 96.4321 81.9679 96.3154 82.0679 96.2154C82.1679 96.1154 82.2912 96.0654 82.4379 96.0654C82.5846 96.0654 82.7079 96.1154 82.8079 96.2154C82.9079 96.3087 82.9579 96.4221 82.9579 96.5554C82.9579 96.7021 82.9079 96.8254 82.8079 96.9254C82.7079 97.0254 82.5846 97.0754 82.4379 97.0754ZM86.9134 103.535C86.4068 103.535 85.9501 103.422 85.5434 103.195C85.1368 102.962 84.8168 102.642 84.5834 102.235C84.3501 101.829 84.2334 101.369 84.2334 100.855C84.2334 100.342 84.3501 99.8821 84.5834 99.4754C84.8168 99.0687 85.1368 98.7521 85.5434 98.5254C85.9501 98.2987 86.4068 98.1854 86.9134 98.1854C87.4201 98.1854 87.8768 98.2987 88.2834 98.5254C88.6901 98.7521 89.0068 99.0687 89.2334 99.4754C89.4668 99.8821 89.5834 100.342 89.5834 100.855C89.5834 101.369 89.4668 101.829 89.2334 102.235C89.0068 102.642 88.6901 102.962 88.2834 103.195C87.8768 103.422 87.4201 103.535 86.9134 103.535ZM86.9134 102.905C87.2868 102.905 87.6201 102.822 87.9134 102.655C88.2134 102.482 88.4468 102.239 88.6134 101.925C88.7801 101.612 88.8634 101.255 88.8634 100.855C88.8634 100.455 88.7801 100.099 88.6134 99.7854C88.4468 99.4721 88.2134 99.2321 87.9134 99.0654C87.6201 98.8921 87.2868 98.8054 86.9134 98.8054C86.5401 98.8054 86.2034 98.8921 85.9034 99.0654C85.6101 99.2321 85.3768 99.4721 85.2034 99.7854C85.0368 100.099 84.9534 100.455 84.9534 100.855C84.9534 101.255 85.0368 101.612 85.2034 101.925C85.3768 102.239 85.6101 102.482 85.9034 102.655C86.2034 102.822 86.5401 102.905 86.9134 102.905ZM93.713 98.1854C94.373 98.1854 94.8963 98.3787 95.283 98.7654C95.6763 99.1454 95.873 99.7021 95.873 100.435V103.485H95.163V100.505C95.163 99.9587 95.0263 99.5421 94.753 99.2554C94.4796 98.9687 94.0896 98.8254 93.583 98.8254C93.0163 98.8254 92.5663 98.9954 92.233 99.3354C91.9063 99.6687 91.743 100.132 91.743 100.725V103.485H91.033V98.2254H91.713V99.1954C91.9063 98.8754 92.173 98.6287 92.513 98.4554C92.8596 98.2754 93.2596 98.1854 93.713 98.1854ZM104.958 101.615H101.058L100.218 103.485H99.4477L102.648 96.4854H103.378L106.578 103.485H105.798L104.958 101.615ZM104.688 101.015L103.008 97.2554L101.328 101.015H104.688ZM108.266 99.2554C108.432 98.9021 108.679 98.6354 109.006 98.4554C109.339 98.2754 109.749 98.1854 110.236 98.1854V98.8754L110.066 98.8654C109.512 98.8654 109.079 99.0354 108.766 99.3754C108.452 99.7154 108.296 100.192 108.296 100.805V103.485H107.586V98.2254H108.266V99.2554ZM113.652 103.535C113.132 103.535 112.666 103.422 112.252 103.195C111.846 102.969 111.526 102.652 111.292 102.245C111.059 101.832 110.942 101.369 110.942 100.855C110.942 100.342 111.059 99.8821 111.292 99.4754C111.526 99.0687 111.846 98.7521 112.252 98.5254C112.666 98.2987 113.132 98.1854 113.652 98.1854C114.106 98.1854 114.509 98.2754 114.862 98.4554C115.222 98.6287 115.506 98.8854 115.712 99.2254L115.182 99.5854C115.009 99.3254 114.789 99.1321 114.522 99.0054C114.256 98.8721 113.966 98.8054 113.652 98.8054C113.272 98.8054 112.929 98.8921 112.622 99.0654C112.322 99.2321 112.086 99.4721 111.912 99.7854C111.746 100.099 111.662 100.455 111.662 100.855C111.662 101.262 111.746 101.622 111.912 101.935C112.086 102.242 112.322 102.482 112.622 102.655C112.929 102.822 113.272 102.905 113.652 102.905C113.966 102.905 114.256 102.842 114.522 102.715C114.789 102.589 115.009 102.395 115.182 102.135L115.712 102.495C115.506 102.835 115.222 103.095 114.862 103.275C114.502 103.449 114.099 103.535 113.652 103.535ZM119.709 98.1854C120.369 98.1854 120.892 98.3787 121.279 98.7654C121.672 99.1454 121.869 99.7021 121.869 100.435V103.485H121.159V100.505C121.159 99.9587 121.022 99.5421 120.749 99.2554C120.476 98.9687 120.086 98.8254 119.579 98.8254C119.012 98.8254 118.562 98.9954 118.229 99.3354C117.902 99.6687 117.739 100.132 117.739 100.725V103.485H117.029V96.0654H117.739V99.1454C117.932 98.8387 118.199 98.6021 118.539 98.4354C118.879 98.2687 119.269 98.1854 119.709 98.1854ZM123.797 98.2254H124.507V103.485H123.797V98.2254ZM124.157 97.0754C124.01 97.0754 123.887 97.0254 123.787 96.9254C123.687 96.8254 123.637 96.7054 123.637 96.5654C123.637 96.4321 123.687 96.3154 123.787 96.2154C123.887 96.1154 124.01 96.0654 124.157 96.0654C124.303 96.0654 124.427 96.1154 124.527 96.2154C124.627 96.3087 124.677 96.4221 124.677 96.5554C124.677 96.7021 124.627 96.8254 124.527 96.9254C124.427 97.0254 124.303 97.0754 124.157 97.0754ZM129.252 103.165C129.119 103.285 128.952 103.379 128.752 103.445C128.559 103.505 128.356 103.535 128.142 103.535C127.649 103.535 127.269 103.402 127.002 103.135C126.736 102.869 126.602 102.492 126.602 102.005V98.8254H125.662V98.2254H126.602V97.0754H127.312V98.2254H128.912V98.8254H127.312V101.965C127.312 102.279 127.389 102.519 127.542 102.685C127.702 102.845 127.929 102.925 128.222 102.925C128.369 102.925 128.509 102.902 128.642 102.855C128.782 102.809 128.902 102.742 129.002 102.655L129.252 103.165ZM134.939 101.075H130.539C130.579 101.622 130.789 102.065 131.169 102.405C131.549 102.739 132.029 102.905 132.609 102.905C132.936 102.905 133.236 102.849 133.509 102.735C133.782 102.615 134.019 102.442 134.219 102.215L134.619 102.675C134.386 102.955 134.092 103.169 133.739 103.315C133.392 103.462 133.009 103.535 132.589 103.535C132.049 103.535 131.569 103.422 131.149 103.195C130.736 102.962 130.412 102.642 130.179 102.235C129.946 101.829 129.829 101.369 129.829 100.855C129.829 100.342 129.939 99.8821 130.159 99.4754C130.386 99.0687 130.692 98.7521 131.079 98.5254C131.472 98.2987 131.912 98.1854 132.399 98.1854C132.886 98.1854 133.322 98.2987 133.709 98.5254C134.096 98.7521 134.399 99.0687 134.619 99.4754C134.839 99.8754 134.949 100.335 134.949 100.855L134.939 101.075ZM132.399 98.7954C131.892 98.7954 131.466 98.9587 131.119 99.2854C130.779 99.6054 130.586 100.025 130.539 100.545H134.269C134.222 100.025 134.026 99.6054 133.679 99.2854C133.339 98.9587 132.912 98.7954 132.399 98.7954ZM138.574 103.535C138.054 103.535 137.588 103.422 137.174 103.195C136.768 102.969 136.448 102.652 136.214 102.245C135.981 101.832 135.864 101.369 135.864 100.855C135.864 100.342 135.981 99.8821 136.214 99.4754C136.448 99.0687 136.768 98.7521 137.174 98.5254C137.588 98.2987 138.054 98.1854 138.574 98.1854C139.028 98.1854 139.431 98.2754 139.784 98.4554C140.144 98.6287 140.428 98.8854 140.634 99.2254L140.104 99.5854C139.931 99.3254 139.711 99.1321 139.444 99.0054C139.178 98.8721 138.888 98.8054 138.574 98.8054C138.194 98.8054 137.851 98.8921 137.544 99.0654C137.244 99.2321 137.008 99.4721 136.834 99.7854C136.668 100.099 136.584 100.455 136.584 100.855C136.584 101.262 136.668 101.622 136.834 101.935C137.008 102.242 137.244 102.482 137.544 102.655C137.851 102.822 138.194 102.905 138.574 102.905C138.888 102.905 139.178 102.842 139.444 102.715C139.711 102.589 139.931 102.395 140.104 102.135L140.634 102.495C140.428 102.835 140.144 103.095 139.784 103.275C139.424 103.449 139.021 103.535 138.574 103.535ZM144.858 103.165C144.724 103.285 144.558 103.379 144.358 103.445C144.164 103.505 143.961 103.535 143.748 103.535C143.254 103.535 142.874 103.402 142.608 103.135C142.341 102.869 142.208 102.492 142.208 102.005V98.8254H141.268V98.2254H142.208V97.0754H142.918V98.2254H144.518V98.8254H142.918V101.965C142.918 102.279 142.994 102.519 143.148 102.685C143.308 102.845 143.534 102.925 143.828 102.925C143.974 102.925 144.114 102.902 144.248 102.855C144.388 102.809 144.508 102.742 144.608 102.655L144.858 103.165ZM150.89 98.2254V103.485H150.21V102.525C150.023 102.845 149.767 103.095 149.44 103.275C149.113 103.449 148.74 103.535 148.32 103.535C147.633 103.535 147.09 103.345 146.69 102.965C146.297 102.579 146.1 102.015 146.1 101.275V98.2254H146.81V101.205C146.81 101.759 146.947 102.179 147.22 102.465C147.493 102.752 147.883 102.895 148.39 102.895C148.943 102.895 149.38 102.729 149.7 102.395C150.02 102.055 150.18 101.585 150.18 100.985V98.2254H150.89ZM153.559 99.2554C153.725 98.9021 153.972 98.6354 154.299 98.4554C154.632 98.2754 155.042 98.1854 155.529 98.1854V98.8754L155.359 98.8654C154.805 98.8654 154.372 99.0354 154.059 99.3754C153.745 99.7154 153.589 100.192 153.589 100.805V103.485H152.879V98.2254H153.559V99.2554ZM161.345 101.075H156.945C156.985 101.622 157.195 102.065 157.575 102.405C157.955 102.739 158.435 102.905 159.015 102.905C159.342 102.905 159.642 102.849 159.915 102.735C160.189 102.615 160.425 102.442 160.625 102.215L161.025 102.675C160.792 102.955 160.499 103.169 160.145 103.315C159.799 103.462 159.415 103.535 158.995 103.535C158.455 103.535 157.975 103.422 157.555 103.195C157.142 102.962 156.819 102.642 156.585 102.235C156.352 101.829 156.235 101.369 156.235 100.855C156.235 100.342 156.345 99.8821 156.565 99.4754C156.792 99.0687 157.099 98.7521 157.485 98.5254C157.879 98.2987 158.319 98.1854 158.805 98.1854C159.292 98.1854 159.729 98.2987 160.115 98.5254C160.502 98.7521 160.805 99.0687 161.025 99.4754C161.245 99.8754 161.355 100.335 161.355 100.855L161.345 101.075ZM158.805 98.7954C158.299 98.7954 157.872 98.9587 157.525 99.2854C157.185 99.6054 156.992 100.025 156.945 100.545H160.675C160.629 100.025 160.432 99.6054 160.085 99.2854C159.745 98.9587 159.319 98.7954 158.805 98.7954ZM43.3805 115.595L42.4105 114.595C41.8171 115.229 41.0371 115.545 40.0705 115.545C39.6171 115.545 39.2105 115.472 38.8505 115.325C38.4971 115.172 38.2205 114.962 38.0205 114.695C37.8205 114.422 37.7205 114.112 37.7205 113.765C37.7205 113.345 37.8538 112.969 38.1205 112.635C38.3871 112.302 38.8405 111.952 39.4805 111.585C39.1471 111.239 38.9171 110.945 38.7905 110.705C38.6638 110.459 38.6005 110.199 38.6005 109.925C38.6005 109.479 38.7605 109.119 39.0805 108.845C39.4005 108.572 39.8305 108.435 40.3705 108.435C40.8705 108.435 41.2671 108.559 41.5605 108.805C41.8538 109.052 42.0005 109.392 42.0005 109.825C42.0005 110.172 41.8838 110.485 41.6505 110.765C41.4171 111.039 41.0138 111.342 40.4405 111.675L42.3605 113.655C42.5738 113.275 42.7305 112.825 42.8305 112.305L43.4105 112.485C43.2838 113.112 43.0771 113.649 42.7905 114.095L43.7905 115.125L43.3805 115.595ZM40.3705 108.965C40.0238 108.965 39.7505 109.052 39.5505 109.225C39.3571 109.399 39.2605 109.629 39.2605 109.915C39.2605 110.122 39.3138 110.319 39.4205 110.505C39.5271 110.692 39.7371 110.945 40.0505 111.265C40.5571 110.972 40.9071 110.722 41.1005 110.515C41.2938 110.309 41.3905 110.082 41.3905 109.835C41.3905 109.569 41.3005 109.359 41.1205 109.205C40.9405 109.045 40.6905 108.965 40.3705 108.965ZM40.1105 114.955C40.8838 114.955 41.5105 114.692 41.9905 114.165L39.8805 111.995C39.3271 112.309 38.9438 112.592 38.7305 112.845C38.5238 113.099 38.4205 113.382 38.4205 113.695C38.4205 114.075 38.5738 114.382 38.8805 114.615C39.1938 114.842 39.6038 114.955 40.1105 114.955ZM53.4971 108.485L50.3971 115.485H49.6671L46.5671 108.485H47.3671L50.0471 114.565L52.7471 108.485H53.4971ZM54.3338 110.225H55.0438V115.485H54.3338V110.225ZM54.6938 109.075C54.5471 109.075 54.4238 109.025 54.3238 108.925C54.2238 108.825 54.1738 108.705 54.1738 108.565C54.1738 108.432 54.2238 108.315 54.3238 108.215C54.4238 108.115 54.5471 108.065 54.6938 108.065C54.8404 108.065 54.9638 108.115 55.0638 108.215C55.1638 108.309 55.2138 108.422 55.2138 108.555C55.2138 108.702 55.1638 108.825 55.0638 108.925C54.9638 109.025 54.8404 109.075 54.6938 109.075ZM58.4293 115.535C58.0026 115.535 57.5926 115.475 57.1993 115.355C56.8126 115.229 56.5093 115.072 56.2893 114.885L56.6093 114.325C56.8293 114.499 57.106 114.642 57.4393 114.755C57.7726 114.862 58.1193 114.915 58.4793 114.915C58.9593 114.915 59.3126 114.842 59.5393 114.695C59.7726 114.542 59.8893 114.329 59.8893 114.055C59.8893 113.862 59.826 113.712 59.6993 113.605C59.5726 113.492 59.4126 113.409 59.2193 113.355C59.026 113.295 58.7693 113.239 58.4493 113.185C58.0226 113.105 57.6793 113.025 57.4193 112.945C57.1593 112.859 56.936 112.715 56.7493 112.515C56.5693 112.315 56.4793 112.039 56.4793 111.685C56.4793 111.245 56.6626 110.885 57.0293 110.605C57.396 110.325 57.906 110.185 58.5593 110.185C58.8993 110.185 59.2393 110.232 59.5793 110.325C59.9193 110.412 60.1993 110.529 60.4193 110.675L60.1093 111.245C59.676 110.945 59.1593 110.795 58.5593 110.795C58.106 110.795 57.7626 110.875 57.5293 111.035C57.3026 111.195 57.1893 111.405 57.1893 111.665C57.1893 111.865 57.2526 112.025 57.3793 112.145C57.5126 112.265 57.676 112.355 57.8693 112.415C58.0626 112.469 58.3293 112.525 58.6693 112.585C59.0893 112.665 59.426 112.745 59.6793 112.825C59.9326 112.905 60.1493 113.042 60.3293 113.235C60.5093 113.429 60.5993 113.695 60.5993 114.035C60.5993 114.495 60.406 114.862 60.0193 115.135C59.6393 115.402 59.1093 115.535 58.4293 115.535ZM66.6519 110.225V115.485H65.9719V114.525C65.7852 114.845 65.5285 115.095 65.2019 115.275C64.8752 115.449 64.5019 115.535 64.0819 115.535C63.3952 115.535 62.8519 115.345 62.4519 114.965C62.0585 114.579 61.8619 114.015 61.8619 113.275V110.225H62.5719V113.205C62.5719 113.759 62.7085 114.179 62.9819 114.465C63.2552 114.752 63.6452 114.895 64.1519 114.895C64.7052 114.895 65.1419 114.729 65.4619 114.395C65.7819 114.055 65.9419 113.585 65.9419 112.985V110.225H66.6519ZM70.4804 110.185C71.1671 110.185 71.6937 110.359 72.0604 110.705C72.4271 111.045 72.6104 111.552 72.6104 112.225V115.485H71.9304V114.665C71.7704 114.939 71.5337 115.152 71.2204 115.305C70.9137 115.459 70.5471 115.535 70.1204 115.535C69.5337 115.535 69.0671 115.395 68.7204 115.115C68.3737 114.835 68.2004 114.465 68.2004 114.005C68.2004 113.559 68.3604 113.199 68.6804 112.925C69.0071 112.652 69.5237 112.515 70.2304 112.515H71.9004V112.195C71.9004 111.742 71.7737 111.399 71.5204 111.165C71.2671 110.925 70.8971 110.805 70.4104 110.805C70.0771 110.805 69.7571 110.862 69.4504 110.975C69.1437 111.082 68.8804 111.232 68.6604 111.425L68.3404 110.895C68.6071 110.669 68.9271 110.495 69.3004 110.375C69.6737 110.249 70.0671 110.185 70.4804 110.185ZM70.2304 114.975C70.6304 114.975 70.9737 114.885 71.2604 114.705C71.5471 114.519 71.7604 114.252 71.9004 113.905V113.045H70.2504C69.3504 113.045 68.9004 113.359 68.9004 113.985C68.9004 114.292 69.0171 114.535 69.2504 114.715C69.4837 114.889 69.8104 114.975 70.2304 114.975ZM74.5388 108.065H75.2488V115.485H74.5388V108.065ZM79.9916 108.485H82.8416C83.5816 108.485 84.2349 108.635 84.8016 108.935C85.3682 109.229 85.8082 109.642 86.1216 110.175C86.4349 110.702 86.5916 111.305 86.5916 111.985C86.5916 112.665 86.4349 113.272 86.1216 113.805C85.8082 114.332 85.3682 114.745 84.8016 115.045C84.2349 115.339 83.5816 115.485 82.8416 115.485H79.9916V108.485ZM82.8016 114.845C83.4149 114.845 83.9516 114.725 84.4116 114.485C84.8716 114.239 85.2282 113.902 85.4816 113.475C85.7349 113.042 85.8616 112.545 85.8616 111.985C85.8616 111.425 85.7349 110.932 85.4816 110.505C85.2282 110.072 84.8716 109.735 84.4116 109.495C83.9516 109.249 83.4149 109.125 82.8016 109.125H80.7316V114.845H82.8016ZM92.6833 113.075H88.2833C88.3233 113.622 88.5333 114.065 88.9133 114.405C89.2933 114.739 89.7733 114.905 90.3533 114.905C90.6799 114.905 90.9799 114.849 91.2533 114.735C91.5266 114.615 91.7633 114.442 91.9633 114.215L92.3633 114.675C92.1299 114.955 91.8366 115.169 91.4833 115.315C91.1366 115.462 90.7533 115.535 90.3333 115.535C89.7933 115.535 89.3133 115.422 88.8933 115.195C88.4799 114.962 88.1566 114.642 87.9233 114.235C87.6899 113.829 87.5733 113.369 87.5733 112.855C87.5733 112.342 87.6833 111.882 87.9033 111.475C88.1299 111.069 88.4366 110.752 88.8233 110.525C89.2166 110.299 89.6566 110.185 90.1433 110.185C90.6299 110.185 91.0666 110.299 91.4533 110.525C91.8399 110.752 92.1433 111.069 92.3633 111.475C92.5833 111.875 92.6933 112.335 92.6933 112.855L92.6833 113.075ZM90.1433 110.795C89.6366 110.795 89.2099 110.959 88.8633 111.285C88.5233 111.605 88.3299 112.025 88.2833 112.545H92.0133C91.9666 112.025 91.7699 111.605 91.4233 111.285C91.0833 110.959 90.6566 110.795 90.1433 110.795ZM95.5484 115.535C95.1218 115.535 94.7118 115.475 94.3184 115.355C93.9318 115.229 93.6284 115.072 93.4084 114.885L93.7284 114.325C93.9484 114.499 94.2251 114.642 94.5584 114.755C94.8918 114.862 95.2384 114.915 95.5984 114.915C96.0784 114.915 96.4318 114.842 96.6584 114.695C96.8918 114.542 97.0084 114.329 97.0084 114.055C97.0084 113.862 96.9451 113.712 96.8184 113.605C96.6918 113.492 96.5318 113.409 96.3384 113.355C96.1451 113.295 95.8884 113.239 95.5684 113.185C95.1418 113.105 94.7984 113.025 94.5384 112.945C94.2784 112.859 94.0551 112.715 93.8684 112.515C93.6884 112.315 93.5984 112.039 93.5984 111.685C93.5984 111.245 93.7818 110.885 94.1484 110.605C94.5151 110.325 95.0251 110.185 95.6784 110.185C96.0184 110.185 96.3584 110.232 96.6984 110.325C97.0384 110.412 97.3184 110.529 97.5384 110.675L97.2284 111.245C96.7951 110.945 96.2784 110.795 95.6784 110.795C95.2251 110.795 94.8818 110.875 94.6484 111.035C94.4218 111.195 94.3084 111.405 94.3084 111.665C94.3084 111.865 94.3718 112.025 94.4984 112.145C94.6318 112.265 94.7951 112.355 94.9884 112.415C95.1818 112.469 95.4484 112.525 95.7884 112.585C96.2084 112.665 96.5451 112.745 96.7984 112.825C97.0518 112.905 97.2684 113.042 97.4484 113.235C97.6284 113.429 97.7184 113.695 97.7184 114.035C97.7184 114.495 97.5251 114.862 97.1384 115.135C96.7584 115.402 96.2284 115.535 95.5484 115.535ZM99.031 110.225H99.741V115.485H99.031V110.225ZM99.391 109.075C99.2443 109.075 99.121 109.025 99.021 108.925C98.921 108.825 98.871 108.705 98.871 108.565C98.871 108.432 98.921 108.315 99.021 108.215C99.121 108.115 99.2443 108.065 99.391 108.065C99.5377 108.065 99.661 108.115 99.761 108.215C99.861 108.309 99.911 108.422 99.911 108.555C99.911 108.702 99.861 108.825 99.761 108.925C99.661 109.025 99.5377 109.075 99.391 109.075ZM106.587 110.225V114.845C106.587 115.739 106.367 116.399 105.927 116.825C105.493 117.259 104.837 117.475 103.957 117.475C103.47 117.475 103.007 117.402 102.567 117.255C102.133 117.115 101.78 116.919 101.507 116.665L101.867 116.125C102.12 116.352 102.427 116.529 102.787 116.655C103.153 116.782 103.537 116.845 103.937 116.845C104.603 116.845 105.093 116.689 105.407 116.375C105.72 116.069 105.877 115.589 105.877 114.935V114.265C105.657 114.599 105.367 114.852 105.007 115.025C104.653 115.199 104.26 115.285 103.827 115.285C103.333 115.285 102.883 115.179 102.477 114.965C102.077 114.745 101.76 114.442 101.527 114.055C101.3 113.662 101.187 113.219 101.187 112.725C101.187 112.232 101.3 111.792 101.527 111.405C101.76 111.019 102.077 110.719 102.477 110.505C102.877 110.292 103.327 110.185 103.827 110.185C104.273 110.185 104.677 110.275 105.037 110.455C105.397 110.635 105.687 110.895 105.907 111.235V110.225H106.587ZM103.897 114.655C104.277 114.655 104.62 114.575 104.927 114.415C105.233 114.249 105.47 114.019 105.637 113.725C105.81 113.432 105.897 113.099 105.897 112.725C105.897 112.352 105.81 112.022 105.637 111.735C105.47 111.442 105.233 111.215 104.927 111.055C104.627 110.889 104.283 110.805 103.897 110.805C103.517 110.805 103.173 110.885 102.867 111.045C102.567 111.205 102.33 111.432 102.157 111.725C101.99 112.019 101.907 112.352 101.907 112.725C101.907 113.099 101.99 113.432 102.157 113.725C102.33 114.019 102.567 114.249 102.867 114.415C103.173 114.575 103.517 114.655 103.897 114.655ZM111.252 110.185C111.912 110.185 112.435 110.379 112.822 110.765C113.215 111.145 113.412 111.702 113.412 112.435V115.485H112.702V112.505C112.702 111.959 112.565 111.542 112.292 111.255C112.019 110.969 111.629 110.825 111.122 110.825C110.555 110.825 110.105 110.995 109.772 111.335C109.445 111.669 109.282 112.132 109.282 112.725V115.485H108.572V110.225H109.252V111.195C109.445 110.875 109.712 110.629 110.052 110.455C110.399 110.275 110.799 110.185 111.252 110.185Z" fill="black"/>
<path d="M512.374 87.325C511.947 87.325 511.537 87.265 511.144 87.145C510.757 87.0184 510.454 86.8617 510.234 86.675L510.554 86.115C510.774 86.2884 511.051 86.4317 511.384 86.545C511.717 86.6517 512.064 86.705 512.424 86.705C512.904 86.705 513.257 86.6317 513.484 86.485C513.717 86.3317 513.834 86.1184 513.834 85.845C513.834 85.6517 513.771 85.5017 513.644 85.395C513.517 85.2817 513.357 85.1984 513.164 85.145C512.971 85.085 512.714 85.0284 512.394 84.975C511.967 84.895 511.624 84.815 511.364 84.735C511.104 84.6484 510.881 84.505 510.694 84.305C510.514 84.105 510.424 83.8284 510.424 83.475C510.424 83.035 510.607 82.675 510.974 82.395C511.341 82.115 511.851 81.975 512.504 81.975C512.844 81.975 513.184 82.0217 513.524 82.115C513.864 82.2017 514.144 82.3184 514.364 82.465L514.054 83.035C513.621 82.735 513.104 82.585 512.504 82.585C512.051 82.585 511.707 82.665 511.474 82.825C511.247 82.985 511.134 83.195 511.134 83.455C511.134 83.655 511.197 83.815 511.324 83.935C511.457 84.055 511.621 84.145 511.814 84.205C512.007 84.2584 512.274 84.315 512.614 84.375C513.034 84.455 513.371 84.535 513.624 84.615C513.877 84.695 514.094 84.8317 514.274 85.025C514.454 85.2184 514.544 85.485 514.544 85.825C514.544 86.285 514.351 86.6517 513.964 86.925C513.584 87.1917 513.054 87.325 512.374 87.325ZM518.007 87.325C517.5 87.325 517.043 87.2117 516.637 86.985C516.23 86.7517 515.91 86.4317 515.677 86.025C515.443 85.6184 515.327 85.1584 515.327 84.645C515.327 84.1317 515.443 83.6717 515.677 83.265C515.91 82.8584 516.23 82.5417 516.637 82.315C517.043 82.0884 517.5 81.975 518.007 81.975C518.513 81.975 518.97 82.0884 519.377 82.315C519.783 82.5417 520.1 82.8584 520.327 83.265C520.56 83.6717 520.677 84.1317 520.677 84.645C520.677 85.1584 520.56 85.6184 520.327 86.025C520.1 86.4317 519.783 86.7517 519.377 86.985C518.97 87.2117 518.513 87.325 518.007 87.325ZM518.007 86.695C518.38 86.695 518.713 86.6117 519.007 86.445C519.307 86.2717 519.54 86.0284 519.707 85.715C519.873 85.4017 519.957 85.045 519.957 84.645C519.957 84.245 519.873 83.8884 519.707 83.575C519.54 83.2617 519.307 83.0217 519.007 82.855C518.713 82.6817 518.38 82.595 518.007 82.595C517.633 82.595 517.297 82.6817 516.997 82.855C516.703 83.0217 516.47 83.2617 516.297 83.575C516.13 83.8884 516.047 84.245 516.047 84.645C516.047 85.045 516.13 85.4017 516.297 85.715C516.47 86.0284 516.703 86.2717 516.997 86.445C517.297 86.6117 517.633 86.695 518.007 86.695ZM522.126 79.855H522.836V87.275H522.126V79.855ZM529.552 82.015V87.275H528.872V86.315C528.685 86.635 528.428 86.885 528.102 87.065C527.775 87.2384 527.402 87.325 526.982 87.325C526.295 87.325 525.752 87.135 525.352 86.755C524.958 86.3684 524.762 85.805 524.762 85.065V82.015H525.472V84.995C525.472 85.5484 525.608 85.9684 525.882 86.255C526.155 86.5417 526.545 86.685 527.052 86.685C527.605 86.685 528.042 86.5184 528.362 86.185C528.682 85.845 528.842 85.375 528.842 84.775V82.015H529.552ZM534.31 86.955C534.177 87.075 534.01 87.1684 533.81 87.235C533.617 87.295 533.414 87.325 533.2 87.325C532.707 87.325 532.327 87.1917 532.06 86.925C531.794 86.6584 531.66 86.2817 531.66 85.795V82.615H530.72V82.015H531.66V80.865H532.37V82.015H533.97V82.615H532.37V85.755C532.37 86.0684 532.447 86.3084 532.6 86.475C532.76 86.635 532.987 86.715 533.28 86.715C533.427 86.715 533.567 86.6917 533.7 86.645C533.84 86.5984 533.96 86.5317 534.06 86.445L534.31 86.955ZM535.603 82.015H536.313V87.275H535.603V82.015ZM535.963 80.865C535.816 80.865 535.693 80.815 535.593 80.715C535.493 80.615 535.443 80.495 535.443 80.355C535.443 80.2217 535.493 80.105 535.593 80.005C535.693 79.905 535.816 79.855 535.963 79.855C536.109 79.855 536.233 79.905 536.333 80.005C536.433 80.0984 536.483 80.2117 536.483 80.345C536.483 80.4917 536.433 80.615 536.333 80.715C536.233 80.815 536.109 80.865 535.963 80.865ZM540.438 87.325C539.932 87.325 539.475 87.2117 539.068 86.985C538.662 86.7517 538.342 86.4317 538.108 86.025C537.875 85.6184 537.758 85.1584 537.758 84.645C537.758 84.1317 537.875 83.6717 538.108 83.265C538.342 82.8584 538.662 82.5417 539.068 82.315C539.475 82.0884 539.932 81.975 540.438 81.975C540.945 81.975 541.402 82.0884 541.808 82.315C542.215 82.5417 542.532 82.8584 542.758 83.265C542.992 83.6717 543.108 84.1317 543.108 84.645C543.108 85.1584 542.992 85.6184 542.758 86.025C542.532 86.4317 542.215 86.7517 541.808 86.985C541.402 87.2117 540.945 87.325 540.438 87.325ZM540.438 86.695C540.812 86.695 541.145 86.6117 541.438 86.445C541.738 86.2717 541.972 86.0284 542.138 85.715C542.305 85.4017 542.388 85.045 542.388 84.645C542.388 84.245 542.305 83.8884 542.138 83.575C541.972 83.2617 541.738 83.0217 541.438 82.855C541.145 82.6817 540.812 82.595 540.438 82.595C540.065 82.595 539.728 82.6817 539.428 82.855C539.135 83.0217 538.902 83.2617 538.728 83.575C538.562 83.8884 538.478 84.245 538.478 84.645C538.478 85.045 538.562 85.4017 538.728 85.715C538.902 86.0284 539.135 86.2717 539.428 86.445C539.728 86.6117 540.065 86.695 540.438 86.695ZM547.238 81.975C547.898 81.975 548.421 82.1684 548.808 82.555C549.201 82.935 549.398 83.4917 549.398 84.225V87.275H548.688V84.295C548.688 83.7484 548.551 83.3317 548.278 83.045C548.005 82.7584 547.615 82.615 547.108 82.615C546.541 82.615 546.091 82.785 545.758 83.125C545.431 83.4584 545.268 83.9217 545.268 84.515V87.275H544.558V82.015H545.238V82.985C545.431 82.665 545.698 82.4184 546.038 82.245C546.385 82.065 546.785 81.975 547.238 81.975Z" fill="black"/>
<path d="M352.039 35.6435C352.533 35.6435 352.979 35.7569 353.379 35.9835C353.779 36.2035 354.093 36.5169 354.319 36.9235C354.546 37.3302 354.659 37.7935 354.659 38.3135C354.659 38.8402 354.546 39.3069 354.319 39.7135C354.093 40.1202 353.779 40.4369 353.379 40.6635C352.986 40.8835 352.539 40.9935 352.039 40.9935C351.613 40.9935 351.226 40.9069 350.879 40.7335C350.539 40.5535 350.259 40.2935 350.039 39.9535V42.8835H349.329V35.6835H350.009V36.7235C350.223 36.3769 350.503 36.1102 350.849 35.9235C351.203 35.7369 351.599 35.6435 352.039 35.6435ZM351.989 40.3635C352.356 40.3635 352.689 40.2802 352.989 40.1135C353.289 39.9402 353.523 39.6969 353.689 39.3835C353.863 39.0702 353.949 38.7135 353.949 38.3135C353.949 37.9135 353.863 37.5602 353.689 37.2535C353.523 36.9402 353.289 36.6969 352.989 36.5235C352.689 36.3502 352.356 36.2635 351.989 36.2635C351.616 36.2635 351.279 36.3502 350.979 36.5235C350.686 36.6969 350.453 36.9402 350.279 37.2535C350.113 37.5602 350.029 37.9135 350.029 38.3135C350.029 38.7135 350.113 39.0702 350.279 39.3835C350.453 39.6969 350.686 39.9402 350.979 40.1135C351.279 40.2802 351.616 40.3635 351.989 40.3635ZM356.787 36.7135C356.953 36.3602 357.2 36.0935 357.527 35.9135C357.86 35.7335 358.27 35.6435 358.757 35.6435V36.3335L358.587 36.3235C358.033 36.3235 357.6 36.4935 357.287 36.8335C356.973 37.1735 356.817 37.6502 356.817 38.2635V40.9435H356.107V35.6835H356.787V36.7135ZM362.143 40.9935C361.637 40.9935 361.18 40.8802 360.773 40.6535C360.367 40.4202 360.047 40.1002 359.813 39.6935C359.58 39.2869 359.463 38.8269 359.463 38.3135C359.463 37.8002 359.58 37.3402 359.813 36.9335C360.047 36.5269 360.367 36.2102 360.773 35.9835C361.18 35.7569 361.637 35.6435 362.143 35.6435C362.65 35.6435 363.107 35.7569 363.513 35.9835C363.92 36.2102 364.237 36.5269 364.463 36.9335C364.697 37.3402 364.813 37.8002 364.813 38.3135C364.813 38.8269 364.697 39.2869 364.463 39.6935C364.237 40.1002 363.92 40.4202 363.513 40.6535C363.107 40.8802 362.65 40.9935 362.143 40.9935ZM362.143 40.3635C362.517 40.3635 362.85 40.2802 363.143 40.1135C363.443 39.9402 363.677 39.6969 363.843 39.3835C364.01 39.0702 364.093 38.7135 364.093 38.3135C364.093 37.9135 364.01 37.5569 363.843 37.2435C363.677 36.9302 363.443 36.6902 363.143 36.5235C362.85 36.3502 362.517 36.2635 362.143 36.2635C361.77 36.2635 361.433 36.3502 361.133 36.5235C360.84 36.6902 360.607 36.9302 360.433 37.2435C360.267 37.5569 360.183 37.9135 360.183 38.3135C360.183 38.7135 360.267 39.0702 360.433 39.3835C360.607 39.6969 360.84 39.9402 361.133 40.1135C361.433 40.2802 361.77 40.3635 362.143 40.3635ZM368.973 35.6435C369.466 35.6435 369.913 35.7569 370.313 35.9835C370.713 36.2035 371.026 36.5169 371.253 36.9235C371.48 37.3302 371.593 37.7935 371.593 38.3135C371.593 38.8335 371.48 39.2969 371.253 39.7035C371.026 40.1102 370.713 40.4269 370.313 40.6535C369.913 40.8802 369.466 40.9935 368.973 40.9935C368.533 40.9935 368.136 40.9002 367.783 40.7135C367.436 40.5269 367.156 40.2569 366.943 39.9035V40.9435H366.263V33.5235H366.973V36.6835C367.193 36.3435 367.473 36.0869 367.813 35.9135C368.16 35.7335 368.546 35.6435 368.973 35.6435ZM368.923 40.3635C369.29 40.3635 369.623 40.2802 369.923 40.1135C370.223 39.9402 370.456 39.6969 370.623 39.3835C370.796 39.0702 370.883 38.7135 370.883 38.3135C370.883 37.9135 370.796 37.5569 370.623 37.2435C370.456 36.9302 370.223 36.6902 369.923 36.5235C369.623 36.3502 369.29 36.2635 368.923 36.2635C368.55 36.2635 368.213 36.3502 367.913 36.5235C367.62 36.6902 367.386 36.9302 367.213 37.2435C367.046 37.5569 366.963 37.9135 366.963 38.3135C366.963 38.7135 367.046 39.0702 367.213 39.3835C367.386 39.6969 367.62 39.9402 367.913 40.1135C368.213 40.2802 368.55 40.3635 368.923 40.3635ZM373.04 33.5235H373.75V40.9435H373.04V33.5235ZM380.306 38.5335H375.906C375.946 39.0802 376.156 39.5235 376.536 39.8635C376.916 40.1969 377.396 40.3635 377.976 40.3635C378.303 40.3635 378.603 40.3069 378.876 40.1935C379.149 40.0735 379.386 39.9002 379.586 39.6735L379.986 40.1335C379.753 40.4135 379.459 40.6269 379.106 40.7735C378.759 40.9202 378.376 40.9935 377.956 40.9935C377.416 40.9935 376.936 40.8802 376.516 40.6535C376.103 40.4202 375.779 40.1002 375.546 39.6935C375.313 39.2869 375.196 38.8269 375.196 38.3135C375.196 37.8002 375.306 37.3402 375.526 36.9335C375.753 36.5269 376.059 36.2102 376.446 35.9835C376.839 35.7569 377.279 35.6435 377.766 35.6435C378.253 35.6435 378.689 35.7569 379.076 35.9835C379.463 36.2102 379.766 36.5269 379.986 36.9335C380.206 37.3335 380.316 37.7935 380.316 38.3135L380.306 38.5335ZM377.766 36.2535C377.259 36.2535 376.833 36.4169 376.486 36.7435C376.146 37.0635 375.953 37.4835 375.906 38.0035H379.636C379.589 37.4835 379.393 37.0635 379.046 36.7435C378.706 36.4169 378.279 36.2535 377.766 36.2535ZM388.321 35.6435C388.981 35.6435 389.498 35.8335 389.871 36.2135C390.251 36.5935 390.441 37.1535 390.441 37.8935V40.9435H389.731V37.9635C389.731 37.4169 389.598 37.0002 389.331 36.7135C389.071 36.4269 388.701 36.2835 388.221 36.2835C387.674 36.2835 387.244 36.4535 386.931 36.7935C386.618 37.1269 386.461 37.5902 386.461 38.1835V40.9435H385.751V37.9635C385.751 37.4169 385.618 37.0002 385.351 36.7135C385.091 36.4269 384.718 36.2835 384.231 36.2835C383.691 36.2835 383.261 36.4535 382.941 36.7935C382.628 37.1269 382.471 37.5902 382.471 38.1835V40.9435H381.761V35.6835H382.441V36.6435C382.628 36.3235 382.888 36.0769 383.221 35.9035C383.554 35.7302 383.938 35.6435 384.371 35.6435C384.811 35.6435 385.191 35.7369 385.511 35.9235C385.838 36.1102 386.081 36.3869 386.241 36.7535C386.434 36.4069 386.711 36.1369 387.071 35.9435C387.438 35.7435 387.854 35.6435 388.321 35.6435ZM351.18 45.5235V52.9435H350.5V51.9035C350.287 52.2569 350.003 52.5269 349.65 52.7135C349.303 52.9002 348.91 52.9935 348.47 52.9935C347.977 52.9935 347.53 52.8802 347.13 52.6535C346.73 52.4269 346.417 52.1102 346.19 51.7035C345.963 51.2969 345.85 50.8335 345.85 50.3135C345.85 49.7935 345.963 49.3302 346.19 48.9235C346.417 48.5169 346.73 48.2035 347.13 47.9835C347.53 47.7569 347.977 47.6435 348.47 47.6435C348.897 47.6435 349.28 47.7335 349.62 47.9135C349.967 48.0869 350.25 48.3435 350.47 48.6835V45.5235H351.18ZM348.53 52.3635C348.897 52.3635 349.227 52.2802 349.52 52.1135C349.82 51.9402 350.053 51.6969 350.22 51.3835C350.393 51.0702 350.48 50.7135 350.48 50.3135C350.48 49.9135 350.393 49.5569 350.22 49.2435C350.053 48.9302 349.82 48.6902 349.52 48.5235C349.227 48.3502 348.897 48.2635 348.53 48.2635C348.157 48.2635 347.82 48.3502 347.52 48.5235C347.227 48.6902 346.993 48.9302 346.82 49.2435C346.653 49.5569 346.57 49.9135 346.57 50.3135C346.57 50.7135 346.653 51.0702 346.82 51.3835C346.993 51.6969 347.227 51.9402 347.52 52.1135C347.82 52.2802 348.157 52.3635 348.53 52.3635ZM357.737 50.5335H353.337C353.377 51.0802 353.587 51.5235 353.967 51.8635C354.347 52.1969 354.827 52.3635 355.407 52.3635C355.734 52.3635 356.034 52.3069 356.307 52.1935C356.581 52.0735 356.817 51.9002 357.017 51.6735L357.417 52.1335C357.184 52.4135 356.891 52.6269 356.537 52.7735C356.191 52.9202 355.807 52.9935 355.387 52.9935C354.847 52.9935 354.367 52.8802 353.947 52.6535C353.534 52.4202 353.211 52.1002 352.977 51.6935C352.744 51.2869 352.627 50.8269 352.627 50.3135C352.627 49.8002 352.737 49.3402 352.957 48.9335C353.184 48.5269 353.491 48.2102 353.877 47.9835C354.271 47.7569 354.711 47.6435 355.197 47.6435C355.684 47.6435 356.121 47.7569 356.507 47.9835C356.894 48.2102 357.197 48.5269 357.417 48.9335C357.637 49.3335 357.747 49.7935 357.747 50.3135L357.737 50.5335ZM355.197 48.2535C354.691 48.2535 354.264 48.4169 353.917 48.7435C353.577 49.0635 353.384 49.4835 353.337 50.0035H357.067C357.021 49.4835 356.824 49.0635 356.477 48.7435C356.137 48.4169 355.711 48.2535 355.197 48.2535ZM360.933 46.0735C360.626 46.0735 360.393 46.1569 360.233 46.3235C360.079 46.4902 360.003 46.7369 360.003 47.0635V47.6835H361.623V48.2835H360.023V52.9435H359.313V48.2835H358.373V47.6835H359.313V47.0335C359.313 46.5535 359.449 46.1735 359.723 45.8935C360.003 45.6135 360.396 45.4735 360.903 45.4735C361.103 45.4735 361.296 45.5035 361.483 45.5635C361.669 45.6169 361.826 45.6969 361.953 45.8035L361.713 46.3335C361.506 46.1602 361.246 46.0735 360.933 46.0735ZM363.383 47.6835H364.093V52.9435H363.383V47.6835ZM363.743 46.5335C363.596 46.5335 363.473 46.4835 363.373 46.3835C363.273 46.2835 363.223 46.1635 363.223 46.0235C363.223 45.8902 363.273 45.7735 363.373 45.6735C363.473 45.5735 363.596 45.5235 363.743 45.5235C363.889 45.5235 364.013 45.5735 364.113 45.6735C364.213 45.7669 364.263 45.8802 364.263 46.0135C364.263 46.1602 364.213 46.2835 364.113 46.3835C364.013 46.4835 363.889 46.5335 363.743 46.5335ZM368.757 47.6435C369.417 47.6435 369.941 47.8369 370.327 48.2235C370.721 48.6035 370.917 49.1602 370.917 49.8935V52.9435H370.207V49.9635C370.207 49.4169 370.071 49.0002 369.797 48.7135C369.524 48.4269 369.134 48.2835 368.627 48.2835C368.061 48.2835 367.611 48.4535 367.277 48.7935C366.951 49.1269 366.787 49.5902 366.787 50.1835V52.9435H366.077V47.6835H366.757V48.6535C366.951 48.3335 367.217 48.0869 367.557 47.9135C367.904 47.7335 368.304 47.6435 368.757 47.6435ZM372.845 47.6835H373.555V52.9435H372.845V47.6835ZM373.205 46.5335C373.058 46.5335 372.935 46.4835 372.835 46.3835C372.735 46.2835 372.685 46.1635 372.685 46.0235C372.685 45.8902 372.735 45.7735 372.835 45.6735C372.935 45.5735 373.058 45.5235 373.205 45.5235C373.352 45.5235 373.475 45.5735 373.575 45.6735C373.675 45.7669 373.725 45.8802 373.725 46.0135C373.725 46.1602 373.675 46.2835 373.575 46.3835C373.475 46.4835 373.352 46.5335 373.205 46.5335ZM378.301 52.6235C378.167 52.7435 378.001 52.8369 377.801 52.9035C377.607 52.9635 377.404 52.9935 377.191 52.9935C376.697 52.9935 376.317 52.8602 376.051 52.5935C375.784 52.3269 375.651 51.9502 375.651 51.4635V48.2835H374.711V47.6835H375.651V46.5335H376.361V47.6835H377.961V48.2835H376.361V51.4235C376.361 51.7369 376.437 51.9769 376.591 52.1435C376.751 52.3035 376.977 52.3835 377.271 52.3835C377.417 52.3835 377.557 52.3602 377.691 52.3135C377.831 52.2669 377.951 52.2002 378.051 52.1135L378.301 52.6235ZM379.593 47.6835H380.303V52.9435H379.593V47.6835ZM379.953 46.5335C379.806 46.5335 379.683 46.4835 379.583 46.3835C379.483 46.2835 379.433 46.1635 379.433 46.0235C379.433 45.8902 379.483 45.7735 379.583 45.6735C379.683 45.5735 379.806 45.5235 379.953 45.5235C380.1 45.5235 380.223 45.5735 380.323 45.6735C380.423 45.7669 380.473 45.8802 380.473 46.0135C380.473 46.1602 380.423 46.2835 380.323 46.3835C380.223 46.4835 380.1 46.5335 379.953 46.5335ZM384.429 52.9935C383.922 52.9935 383.465 52.8802 383.059 52.6535C382.652 52.4202 382.332 52.1002 382.099 51.6935C381.865 51.2869 381.749 50.8269 381.749 50.3135C381.749 49.8002 381.865 49.3402 382.099 48.9335C382.332 48.5269 382.652 48.2102 383.059 47.9835C383.465 47.7569 383.922 47.6435 384.429 47.6435C384.935 47.6435 385.392 47.7569 385.799 47.9835C386.205 48.2102 386.522 48.5269 386.749 48.9335C386.982 49.3402 387.099 49.8002 387.099 50.3135C387.099 50.8269 386.982 51.2869 386.749 51.6935C386.522 52.1002 386.205 52.4202 385.799 52.6535C385.392 52.8802 384.935 52.9935 384.429 52.9935ZM384.429 52.3635C384.802 52.3635 385.135 52.2802 385.429 52.1135C385.729 51.9402 385.962 51.6969 386.129 51.3835C386.295 51.0702 386.379 50.7135 386.379 50.3135C386.379 49.9135 386.295 49.5569 386.129 49.2435C385.962 48.9302 385.729 48.6902 385.429 48.5235C385.135 48.3502 384.802 48.2635 384.429 48.2635C384.055 48.2635 383.719 48.3502 383.419 48.5235C383.125 48.6902 382.892 48.9302 382.719 49.2435C382.552 49.5569 382.469 49.9135 382.469 50.3135C382.469 50.7135 382.552 51.0702 382.719 51.3835C382.892 51.6969 383.125 51.9402 383.419 52.1135C383.719 52.2802 384.055 52.3635 384.429 52.3635ZM391.228 47.6435C391.888 47.6435 392.411 47.8369 392.798 48.2235C393.191 48.6035 393.388 49.1602 393.388 49.8935V52.9435H392.678V49.9635C392.678 49.4169 392.541 49.0002 392.268 48.7135C391.995 48.4269 391.605 48.2835 391.098 48.2835C390.531 48.2835 390.081 48.4535 389.748 48.7935C389.421 49.1269 389.258 49.5902 389.258 50.1835V52.9435H388.548V47.6835H389.228V48.6535C389.421 48.3335 389.688 48.0869 390.028 47.9135C390.375 47.7335 390.775 47.6435 391.228 47.6435Z" fill="black"/>
<rect x="234.638" y="84.8011" width="99" height="99" rx="1.5" transform="rotate(-45.0213 234.638 84.8011)" stroke="#414141"/>
<circle cx="282.083" cy="84.8013" r="15" fill="#FFD28F" fill-opacity="0.83"/>
<path d="M283.291 80.9013V89.3013H281.347V82.4613H279.667V80.9013H283.291Z" fill="black"/>
<circle cx="279.583" cy="84.8013" r="14.5" stroke="black"/>
<circle cx="17.5005" cy="15.7819" r="15" fill="#FFD28F" fill-opacity="0.83"/>
<path d="M18.7085 11.8819V20.2819H16.7645V13.4419H15.0845V11.8819H18.7085Z" fill="black"/>
<circle cx="15.0005" cy="15.7819" r="14.5" stroke="black"/>
<circle cx="416.707" cy="84.775" r="15" fill="#FCBB80" fill-opacity="0.83"/>
<path d="M417.099 84.295C417.835 84.415 418.399 84.691 418.791 85.123C419.183 85.547 419.379 86.075 419.379 86.707C419.379 87.195 419.251 87.647 418.995 88.063C418.739 88.471 418.347 88.799 417.819 89.047C417.299 89.295 416.659 89.419 415.899 89.419C415.307 89.419 414.723 89.343 414.147 89.191C413.579 89.031 413.095 88.807 412.695 88.519L413.451 87.031C413.771 87.271 414.139 87.459 414.555 87.595C414.979 87.723 415.411 87.787 415.851 87.787C416.339 87.787 416.723 87.695 417.003 87.511C417.283 87.319 417.423 87.051 417.423 86.707C417.423 86.019 416.899 85.675 415.851 85.675H414.963V84.391L416.691 82.435H413.115V80.875H418.995V82.135L417.099 84.295Z" fill="black"/>
<circle cx="418.43" cy="84.8013" r="14.5" stroke="black"/>
<circle cx="15.0005" cy="101.242" r="15" fill="#FCBB80" fill-opacity="0.83"/>
<path d="M15.3925 100.762C16.1285 100.882 16.6925 101.158 17.0845 101.59C17.4765 102.014 17.6725 102.542 17.6725 103.174C17.6725 103.662 17.5445 104.114 17.2885 104.53C17.0325 104.938 16.6405 105.266 16.1125 105.514C15.5925 105.762 14.9525 105.886 14.1925 105.886C13.6005 105.886 13.0165 105.81 12.4405 105.658C11.8725 105.498 11.3885 105.274 10.9885 104.986L11.7445 103.498C12.0645 103.738 12.4325 103.926 12.8485 104.062C13.2725 104.19 13.7045 104.254 14.1445 104.254C14.6325 104.254 15.0165 104.162 15.2965 103.978C15.5765 103.786 15.7165 103.518 15.7165 103.174C15.7165 102.486 15.1925 102.142 14.1445 102.142H13.2565V100.858L14.9845 98.9022H11.4085V97.3422H17.2885V98.6022L15.3925 100.762Z" fill="black"/>
<circle cx="16.7239" cy="101.268" r="14.5" stroke="black"/>
<circle cx="460.784" cy="84.775" r="15" fill="#FFB78E"/>
<path d="M464.444 87.5373H463.076V89.3013H461.18V87.5373H456.656V86.2293L460.616 80.9013H462.656L458.984 85.9533H461.24V84.3813H463.076V85.9533H464.444V87.5373Z" fill="black"/>
<circle cx="462.507" cy="84.8013" r="14.5" stroke="black"/>
<circle cx="15.0005" cy="148.486" r="15" fill="#FFB78E"/>
<path d="M18.6605 151.248H17.2925V153.012H15.3965V151.248H10.8725V149.94L14.8325 144.612H16.8725L13.2005 149.664H15.4565V148.092H17.2925V149.664H18.6605V151.248Z" fill="black"/>
<circle cx="16.7239" cy="148.512" r="14.5" stroke="black"/>
<circle cx="326.161" cy="84.775" r="15" fill="#FFD3C9"/>
<path d="M330.405 87.691V89.275H324.057V88.015L327.297 84.955C327.641 84.627 327.873 84.347 327.993 84.115C328.113 83.875 328.173 83.639 328.173 83.407C328.173 83.071 328.057 82.815 327.825 82.639C327.601 82.455 327.269 82.363 326.829 82.363C326.461 82.363 326.129 82.435 325.833 82.579C325.537 82.715 325.289 82.923 325.089 83.203L323.673 82.291C324.001 81.803 324.453 81.423 325.029 81.151C325.605 80.871 326.265 80.731 327.009 80.731C327.633 80.731 328.177 80.835 328.641 81.043C329.113 81.243 329.477 81.531 329.733 81.907C329.997 82.275 330.129 82.711 330.129 83.215C330.129 83.671 330.033 84.099 329.841 84.499C329.649 84.899 329.277 85.355 328.725 85.867L326.793 87.691H330.405Z" fill="black"/>
<circle cx="327.527" cy="84.8013" r="14.5" stroke="black"/>
<circle cx="15.0005" cy="58.499" r="15" fill="#FF3509" fill-opacity="0.22"/>
<path d="M19.2445 61.415V62.999H12.8965V61.739L16.1365 58.679C16.4805 58.351 16.7125 58.071 16.8325 57.839C16.9525 57.599 17.0125 57.363 17.0125 57.131C17.0125 56.795 16.8965 56.539 16.6645 56.363C16.4405 56.179 16.1085 56.087 15.6685 56.087C15.3005 56.087 14.9685 56.159 14.6725 56.303C14.3765 56.439 14.1285 56.647 13.9285 56.927L12.5125 56.015C12.8405 55.527 13.2925 55.147 13.8685 54.875C14.4445 54.595 15.1045 54.455 15.8485 54.455C16.4725 54.455 17.0165 54.559 17.4805 54.767C17.9525 54.967 18.3165 55.255 18.5725 55.631C18.8365 55.999 18.9685 56.435 18.9685 56.939C18.9685 57.395 18.8725 57.823 18.6805 58.223C18.4885 58.623 18.1165 59.079 17.5645 59.591L15.6325 61.415H19.2445Z" fill="black"/>
<circle cx="16.3672" cy="58.5253" r="14.5" stroke="black"/>
<line x1="356.756" y1="57.4241" x2="382.959" y2="57.4241" stroke="black"/>
<line x1="199.792" y1="91.8017" x2="225.995" y2="91.8017" stroke="black"/>
<line x1="517.373" y1="91.8017" x2="543.576" y2="91.8017" stroke="black"/>
</svg>
