<svg width="315" height="310" viewBox="0 0 315 310" fill="none" xmlns="http://www.w3.org/2000/svg">
<g filter="url(#filter0_d)">
<path d="M103.921 2.62793H192.373C196.791 2.62793 200.373 6.20965 200.373 10.6279V302.42H111.921C107.503 302.42 103.921 298.838 103.921 294.42V2.62793Z" fill="black"/>
<path d="M217.753 118.056H295.488C299.906 118.056 303.488 121.638 303.488 126.056V301.8H225.753C221.334 301.8 217.753 298.218 217.753 293.8V118.056Z" fill="black"/>
<path d="M0.749573 2.62793H78.4848C82.903 2.62793 86.4848 6.20965 86.4848 10.6279V186.371H8.74958C4.3313 186.371 0.749573 182.79 0.749573 178.371V2.62793Z" fill="black"/>
<ellipse cx="242.986" cy="47.3859" rx="50.4658" ry="47.1137" fill="black"/>
<ellipse cx="61.3084" cy="252.331" rx="50.4658" ry="47.1137" fill="black"/>
</g>
<defs>
<filter id="filter0_d" x="0.749573" y="0.272217" width="313.738" height="309.148" filterUnits="userSpaceOnUse" color-interpolation-filters="sRGB">
<feFlood flood-opacity="0" result="BackgroundImageFix"/>
<feColorMatrix in="SourceAlpha" type="matrix" values="0 0 0 0 0 0 0 0 0 0 0 0 0 0 0 0 0 0 127 0"/>
<feOffset dx="11" dy="7"/>
<feColorMatrix type="matrix" values="0 0 0 0 1 0 0 0 0 1 0 0 0 0 1 0 0 0 0.34 0"/>
<feBlend mode="normal" in2="BackgroundImageFix" result="effect1_dropShadow"/>
<feBlend mode="normal" in="SourceGraphic" in2="effect1_dropShadow" result="shape"/>
</filter>
</defs>
</svg>
