<svg width="116" height="129" viewBox="0 0 116 129" fill="none" xmlns="http://www.w3.org/2000/svg">
<path d="M38.8887 0H69.1134C73.5317 0 77.1134 3.58172 77.1134 8V128.569H46.8887C42.4704 128.569 38.8887 124.988 38.8887 120.569V0Z" fill="black"/>
<path d="M81.208 50.5695H107.186C111.604 50.5695 115.186 54.1512 115.186 58.5695V128.569H89.208C84.7897 128.569 81.208 124.988 81.208 120.569V50.5695Z" fill="black"/>
<path d="M0.816406 0H26.7939C31.2122 0 34.7939 3.58172 34.7939 8V78H8.8164C4.39813 78 0.816406 74.4183 0.816406 70V0Z" fill="black"/>
<circle cx="94.001" cy="20" r="20" fill="black"/>
<circle cx="21.9971" cy="108.65" r="20" fill="black"/>
</svg>
