<svg width="111" height="108" viewBox="0 0 111 108" fill="none" xmlns="http://www.w3.org/2000/svg">
<g filter="url(#filter0_d)">
<path d="M34.0794 1.27161H57.9393C62.3576 1.27161 65.9393 4.85333 65.9393 9.27161V100.492H42.0794C37.6611 100.492 34.0794 96.9102 34.0794 92.4919V1.27161Z" fill="white"/>
<path d="M71.6801 39.4742H92C96.4183 39.4742 100 43.056 100 47.4742V100.287H79.6801C75.2618 100.287 71.6801 96.705 71.6801 92.2867V39.4742Z" fill="white"/>
<path d="M0 1.27161H20.3199C24.7382 1.27161 28.3199 4.85333 28.3199 9.27161V62.0841H8.00001C3.58173 62.0841 0 58.5023 0 54.0841V1.27161Z" fill="white"/>
<ellipse cx="80.015" cy="16.0849" rx="16.6698" ry="15.5929" fill="white"/>
<ellipse cx="20.0037" cy="83.9142" rx="16.6698" ry="15.5929" fill="white"/>
</g>
<defs>
<filter id="filter0_d" x="0" y="0.491943" width="111" height="107" filterUnits="userSpaceOnUse" color-interpolation-filters="sRGB">
<feFlood flood-opacity="0" result="BackgroundImageFix"/>
<feColorMatrix in="SourceAlpha" type="matrix" values="0 0 0 0 0 0 0 0 0 0 0 0 0 0 0 0 0 0 127 0"/>
<feOffset dx="11" dy="7"/>
<feColorMatrix type="matrix" values="0 0 0 0 0.85 0 0 0 0 0.653898 0 0 0 0 0.502917 0 0 0 0.89 0"/>
<feBlend mode="normal" in2="BackgroundImageFix" result="effect1_dropShadow"/>
<feBlend mode="normal" in="SourceGraphic" in2="effect1_dropShadow" result="shape"/>
</filter>
</defs>
</svg>
